%FSLAX44Y44*%
%MOMM*%
G71*
G01*
G75*
G04 Layer_Physical_Order=1*
G04 Layer_Color=255*
%ADD10C,0.2000*%
%ADD11C,0.4000*%
%ADD12C,0.3000*%
%ADD13C,1.3000*%
%ADD14C,1.4000*%
%ADD15C,2.0000*%
%ADD16C,1.6900*%
%ADD17R,1.6900X1.6900*%
%ADD18C,4.7600*%
%ADD19C,1.5240*%
%ADD20R,1.5000X1.5000*%
%ADD21C,1.5000*%
%ADD22C,1.0000*%
D10*
X957580Y1336040D02*
X984610D01*
X1016070Y1304580D01*
X1001050Y1144560D02*
X1057070D01*
X975360Y1118870D02*
X1001050Y1144560D01*
X958850Y1118870D02*
X975360D01*
X1051700Y1121410D02*
X1057070Y1126780D01*
X999870Y1101470D02*
X1016070D01*
X981710Y1083310D02*
X999870Y1101470D01*
X946150Y1083310D02*
X981710D01*
X1322070Y1252510D02*
Y1292510D01*
Y1212510D02*
Y1252510D01*
Y1292510D02*
X1323690Y1294130D01*
X1408430D01*
X1461430Y983910D02*
X1461770Y984250D01*
X1461430Y1060110D02*
X1461770Y1060450D01*
X1461430Y1136310D02*
X1461770Y1136650D01*
X1097280Y1086570D02*
X1195070Y1184360D01*
Y1375410D01*
X1170940Y1399540D02*
X1195070Y1375410D01*
X1042670Y1399540D02*
X1170940D01*
X1016070Y1372940D02*
X1042670Y1399540D01*
X1016070Y1304580D02*
Y1372940D01*
X960120Y822960D02*
X1046480D01*
X1322070Y1292510D02*
Y1337310D01*
X1287780Y1371600D02*
X1322070Y1337310D01*
X1236980Y1371600D02*
X1287780D01*
X1064260D02*
X1160780D01*
X1064260Y1209040D02*
Y1371600D01*
X1035330Y1180110D02*
X1064260Y1209040D01*
X1016070Y1180110D02*
X1035330D01*
X1081750Y948980D02*
X1097280Y933450D01*
X1057070Y948980D02*
X1081750D01*
X1084290Y1037880D02*
X1097280Y1024890D01*
X1057070Y1037880D02*
X1084290D01*
X1057070Y1126780D02*
X1097280Y1086570D01*
X618490Y930910D02*
X646430Y958850D01*
Y1156200D01*
X579140Y1223490D02*
X646430Y1156200D01*
X553610Y1077070D02*
X618490Y1012190D01*
X553720Y1077180D02*
Y1300480D01*
X571500Y1318260D01*
X589280D01*
X607540Y1300000D01*
Y1292740D02*
Y1300000D01*
X579140Y1244580D02*
Y1251190D01*
X567690Y1295140D02*
X579140Y1306590D01*
X567690Y1274147D02*
Y1295140D01*
X588947Y1267440D02*
X606014Y1250373D01*
X736600D01*
X567690Y1274147D02*
X574397Y1267440D01*
X588947D01*
X736600Y1250373D02*
X769043Y1217930D01*
Y1135957D02*
Y1217930D01*
Y1135957D02*
X786130Y1118870D01*
X579140Y1278890D02*
X619760D01*
X640277Y1258373D01*
X741877D01*
X607540Y1265040D02*
X618207Y1254373D01*
X740220D01*
X607540Y1237340D02*
X616790Y1228090D01*
X722630D01*
X740220Y1254373D02*
X786130Y1208463D01*
Y1189990D02*
Y1208463D01*
X741877Y1258373D02*
X796290Y1203960D01*
X838200D01*
X749300Y1028700D02*
X765810Y1012190D01*
X711200Y1028700D02*
X749300D01*
X694690Y1012190D02*
X711200Y1028700D01*
X749300Y947420D02*
X765810Y930910D01*
X711200Y947420D02*
X749300D01*
X694690Y930910D02*
X711200Y947420D01*
X765810Y930910D02*
X783590Y948690D01*
X953770D01*
X971840Y966760D01*
X1057070D01*
X765810Y1012190D02*
X786130Y1032510D01*
X967740D01*
X990890Y1055660D01*
X1057070D01*
X922136Y1118870D02*
X930136Y1126870D01*
X950850D02*
X958850Y1118870D01*
X862330D02*
X922136D01*
X930136Y1126870D02*
X950850D01*
X831850Y1088390D02*
X836930Y1083310D01*
X946150D01*
X831850Y1062990D02*
X837170Y1068310D01*
X946150D01*
X831850Y1017270D02*
X842010Y1007110D01*
X941070D01*
X831850Y991870D02*
X832090Y992110D01*
X941070D01*
X831850Y925830D02*
X836930Y920750D01*
X941070D01*
X831850Y900430D02*
X837170Y905750D01*
X941070D01*
X943650Y903170D01*
X1016070D01*
X1013150Y920750D02*
X1016070Y923670D01*
X941070Y920750D02*
X1013150D01*
X1015760Y992110D02*
X1016070Y991800D01*
X941070Y992110D02*
X1015760D01*
X984630Y1012570D02*
X1016070D01*
X979170Y1007110D02*
X984630Y1012570D01*
X941070Y1007110D02*
X979170D01*
X989530Y1080970D02*
X1016070D01*
X976870Y1068310D02*
X989530Y1080970D01*
X946150Y1068310D02*
X976870D01*
X838200Y1203960D02*
X852170Y1189990D01*
X862330D01*
X972600Y1154430D02*
X1016070Y1197900D01*
X958850Y1154430D02*
X972600D01*
X950850Y1197990D02*
X958850Y1189990D01*
X862330D02*
X918210D01*
X926210Y1197990D01*
X950850D01*
X987080Y1215680D02*
X1016070D01*
X961390Y1189990D02*
X987080Y1215680D01*
X958850Y1189990D02*
X961390D01*
X801370Y1230630D02*
X923290D01*
X927100Y1234440D01*
X949960D01*
X958850Y1225550D01*
X1008160D02*
X1016070Y1233460D01*
X958850Y1225550D02*
X1008160D01*
X951230Y1268730D02*
X958850Y1261110D01*
X968720Y1251240D01*
X1016070D01*
X937144Y1268730D02*
X951230D01*
X936764Y1269110D02*
X937144Y1268730D01*
X930136Y1269110D02*
X936764D01*
X922136Y1261110D02*
X930136Y1269110D01*
X862330Y1261110D02*
X922136D01*
X607540Y1320440D02*
X721720D01*
X781050Y1261110D01*
X786130D01*
X949960Y1305560D02*
X958850Y1296670D01*
X986500Y1269020D01*
X1016070D01*
X929640Y1305560D02*
X949960D01*
X920750Y1296670D02*
X929640Y1305560D01*
X862330Y1296670D02*
X920750D01*
X579140Y1334290D02*
X748510D01*
X786130Y1296670D01*
D11*
X1553210Y1214120D02*
X1689860D01*
X1551940D02*
X1553210D01*
Y1215390D01*
Y951230D02*
Y1214120D01*
X1551940D02*
X1553210Y1215390D01*
X1509690Y907710D02*
X1553210Y951230D01*
X1097280Y933450D02*
Y1024890D01*
Y822960D02*
Y933450D01*
Y1024890D02*
Y1086570D01*
X1322070Y907710D02*
X1509690D01*
D12*
X1322070Y983910D02*
X1461430D01*
X1322070Y1060110D02*
X1461430D01*
X1322070Y1136310D02*
X1461430D01*
D13*
X1016070Y1233460D02*
D03*
Y1269020D02*
D03*
Y1251240D02*
D03*
Y1286800D02*
D03*
Y1304580D02*
D03*
Y1180110D02*
D03*
Y1101470D02*
D03*
Y1080970D02*
D03*
Y1215680D02*
D03*
Y1197900D02*
D03*
Y1012570D02*
D03*
Y991800D02*
D03*
Y923670D02*
D03*
Y903170D02*
D03*
D14*
X1057070Y1126780D02*
D03*
Y1144560D02*
D03*
Y1055660D02*
D03*
Y1037880D02*
D03*
Y966760D02*
D03*
Y948980D02*
D03*
X862330Y1296670D02*
D03*
X786130D02*
D03*
X862330Y1118870D02*
D03*
X786130D02*
D03*
X1408430Y1294130D02*
D03*
X1484630D02*
D03*
X786130Y1189990D02*
D03*
X862330D02*
D03*
Y1261110D02*
D03*
X786130D02*
D03*
X694690Y1012190D02*
D03*
X618490D02*
D03*
X1236980Y1371600D02*
D03*
X1160780D02*
D03*
X798830Y1228090D02*
D03*
X722630D02*
D03*
X694690Y930910D02*
D03*
X618490D02*
D03*
D15*
X1322070Y1252510D02*
D03*
Y1292510D02*
D03*
Y1212510D02*
D03*
Y1136310D02*
D03*
Y1060110D02*
D03*
Y983910D02*
D03*
Y907710D02*
D03*
X1691640Y1307340D02*
D03*
Y1212340D02*
D03*
X1461770Y984250D02*
D03*
Y1060450D02*
D03*
Y1136650D02*
D03*
D16*
X579140Y1223490D02*
D03*
X607540Y1237340D02*
D03*
X579140Y1251190D02*
D03*
X607540Y1265040D02*
D03*
X579140Y1278890D02*
D03*
X607540Y1292740D02*
D03*
X579140Y1306590D02*
D03*
X607540Y1320440D02*
D03*
D17*
X579140Y1334290D02*
D03*
D18*
X593340Y1403840D02*
D03*
Y1153940D02*
D03*
D19*
X1097280Y822960D02*
D03*
X1071880D02*
D03*
X1046480D02*
D03*
D20*
X960120D02*
D03*
D21*
X934720D02*
D03*
D22*
X958850Y1296670D02*
D03*
X933450D02*
D03*
X958850Y1118870D02*
D03*
X933450D02*
D03*
X958850Y1189990D02*
D03*
X933450D02*
D03*
X958850Y1261110D02*
D03*
X933450D02*
D03*
X765810Y1012190D02*
D03*
X740410D02*
D03*
X1064260Y1371600D02*
D03*
X1038860D02*
D03*
X958850Y1154430D02*
D03*
X933450D02*
D03*
X958850Y1225550D02*
D03*
X933450D02*
D03*
X765810Y930910D02*
D03*
X740410D02*
D03*
X941070Y920750D02*
D03*
Y905750D02*
D03*
X831850Y925830D02*
D03*
Y900430D02*
D03*
X941070Y1007110D02*
D03*
Y992110D02*
D03*
X831850Y1017270D02*
D03*
Y991870D02*
D03*
X946150Y1083310D02*
D03*
Y1068310D02*
D03*
X831850Y1088390D02*
D03*
Y1062990D02*
D03*
X957580Y1336040D02*
D03*
X932180D02*
D03*
X1551940Y1214120D02*
D03*
X1526540D02*
D03*
M02*
