%FSLAX44Y44*%
%MOMM*%
G71*
G01*
G75*
%ADD10C,0.2000*%
%ADD11C,0.4000*%
%ADD12C,0.3000*%
%ADD13C,1.3000*%
%ADD14C,1.4000*%
%ADD15C,2.0000*%
%ADD16C,1.6900*%
%ADD17R,1.6900X1.6900*%
%ADD18C,4.7600*%
%ADD19C,1.5240*%
%ADD20R,1.5000X1.5000*%
%ADD21C,1.5000*%
%ADD22C,1.0000*%
%ADD23C,1.0160*%
%ADD24R,1.6660X1.6660*%
%ADD25R,1.7160X1.7160*%
%ADD26O,1.6660X2.5160*%
%ADD27C,2.1060*%
%ADD28C,4.2760*%
%ADD29C,2.0160*%
%ADD30C,1.9160*%
%ADD31C,1.8660*%
%ADD32C,1.5660*%
%ADD33C,2.2160*%
%ADD34C,1.5160*%
%ADD35C,0.1000*%
%ADD36C,0.2540*%
%ADD37C,0.1500*%
%ADD38C,1.5032*%
%ADD39C,1.6032*%
%ADD40C,2.2032*%
%ADD41C,1.8932*%
%ADD42R,1.8932X1.8932*%
%ADD43C,4.9632*%
%ADD44C,1.7272*%
%ADD45R,1.7032X1.7032*%
%ADD46C,1.7032*%
%ADD47C,1.2032*%
%ADD48C,0.1693*%
%ADD49C,0.1016*%
%ADD50C,0.4064*%
%ADD51C,0.2032*%
%ADD52C,0.1185*%
%ADD53C,0.3556*%
D35*
X1012820Y1233460D02*
X1019320D01*
X1016070Y1230210D02*
Y1236710D01*
X1053570Y1126780D02*
X1060570D01*
X1057070Y1123280D02*
Y1130280D01*
X1012820Y1269020D02*
X1019320D01*
X1016070Y1265770D02*
Y1272270D01*
X1012820Y1251240D02*
X1019320D01*
X1016070Y1247990D02*
Y1254490D01*
X1012820Y1286800D02*
X1019320D01*
X1016070Y1283550D02*
Y1290050D01*
X1012820Y1304580D02*
X1019320D01*
X1016070Y1301330D02*
Y1307830D01*
X1012820Y1180110D02*
X1019320D01*
X1016070Y1176860D02*
Y1183360D01*
X1053570Y1144560D02*
X1060570D01*
X1057070Y1141060D02*
Y1148060D01*
X1012820Y1101470D02*
X1019320D01*
X1016070Y1098220D02*
Y1104720D01*
X1012820Y1080970D02*
X1019320D01*
X1016070Y1077720D02*
Y1084220D01*
X1012820Y1215680D02*
X1019320D01*
X1016070Y1212430D02*
Y1218930D01*
X1053570Y1055660D02*
X1060570D01*
X1057070Y1052160D02*
Y1059160D01*
X1053570Y1037880D02*
X1060570D01*
X1057070Y1034380D02*
Y1041380D01*
X1012820Y1197900D02*
X1019320D01*
X1016070Y1194650D02*
Y1201150D01*
X1012820Y1012570D02*
X1019320D01*
X1016070Y1009320D02*
Y1015820D01*
X1012820Y991800D02*
X1019320D01*
X1016070Y988550D02*
Y995050D01*
X1053570Y966760D02*
X1060570D01*
X1057070Y963260D02*
Y970260D01*
X1053570Y948980D02*
X1060570D01*
X1057070Y945480D02*
Y952480D01*
X1318820Y1252510D02*
X1325320D01*
X1322070Y1249260D02*
Y1255760D01*
X1318820Y1292510D02*
X1325320D01*
X1322070Y1289260D02*
Y1295760D01*
X1318820Y1212510D02*
X1325320D01*
X1322070Y1209260D02*
Y1215760D01*
X1318820Y1136310D02*
X1325320D01*
X1322070Y1133060D02*
Y1139560D01*
X1318820Y1060110D02*
X1325320D01*
X1322070Y1056860D02*
Y1063360D01*
X1318820Y983910D02*
X1325320D01*
X1322070Y980660D02*
Y987160D01*
X1318820Y907710D02*
X1325320D01*
X1322070Y904460D02*
Y910960D01*
X1012820Y923670D02*
X1019320D01*
X1016070Y920420D02*
Y926920D01*
X1012820Y903170D02*
X1019320D01*
X1016070Y899920D02*
Y906420D01*
X573690Y1223490D02*
X584590D01*
X579140Y1218040D02*
Y1228940D01*
X602090Y1237340D02*
X612990D01*
X607540Y1231890D02*
Y1242790D01*
X573690Y1251190D02*
X584590D01*
X579140Y1245740D02*
Y1256640D01*
X602090Y1265040D02*
X612990D01*
X607540Y1259590D02*
Y1270490D01*
X573690Y1278890D02*
X584590D01*
X579140Y1273440D02*
Y1284340D01*
X602090Y1292740D02*
X612990D01*
X607540Y1287290D02*
Y1298190D01*
X573690Y1306590D02*
X584590D01*
X579140Y1301140D02*
Y1312040D01*
X602090Y1320440D02*
X612990D01*
X607540Y1314990D02*
Y1325890D01*
X573690Y1334290D02*
X584590D01*
X579140Y1328840D02*
Y1339740D01*
X577040Y1403840D02*
X609640D01*
X593340Y1387540D02*
Y1420140D01*
X577040Y1153940D02*
X609640D01*
X593340Y1137640D02*
Y1170240D01*
X1092280Y822960D02*
X1102280D01*
X1097280Y817960D02*
Y827960D01*
X1066880Y822960D02*
X1076880D01*
X1071880Y817960D02*
Y827960D01*
X1041480Y822960D02*
X1051480D01*
X1046480Y817960D02*
Y827960D01*
X955620Y822960D02*
X964620D01*
X960120Y818460D02*
Y827460D01*
X930220Y822960D02*
X939220D01*
X934720Y818460D02*
Y827460D01*
X858080Y1296670D02*
X866580D01*
X862330Y1292420D02*
Y1300920D01*
X781880Y1296670D02*
X790380D01*
X786130Y1292420D02*
Y1300920D01*
X858080Y1118870D02*
X866580D01*
X862330Y1114620D02*
Y1123120D01*
X781880Y1118870D02*
X790380D01*
X786130Y1114620D02*
Y1123120D01*
X956100Y1296670D02*
X961600D01*
X958850Y1293920D02*
Y1299420D01*
X930700Y1296670D02*
X936200D01*
X933450Y1293920D02*
Y1299420D01*
X956100Y1118870D02*
X961600D01*
X958850Y1116120D02*
Y1121620D01*
X930700Y1118870D02*
X936200D01*
X933450Y1116120D02*
Y1121620D01*
X1404180Y1294130D02*
X1412680D01*
X1408430Y1289880D02*
Y1298380D01*
X1480380Y1294130D02*
X1488880D01*
X1484630Y1289880D02*
Y1298380D01*
X1685640Y1307340D02*
X1697640D01*
X1691640Y1301340D02*
Y1313340D01*
X1685640Y1212340D02*
X1697640D01*
X1691640Y1206340D02*
Y1218340D01*
X781880Y1189990D02*
X790380D01*
X786130Y1185740D02*
Y1194240D01*
X858080Y1189990D02*
X866580D01*
X862330Y1185740D02*
Y1194240D01*
X858080Y1261110D02*
X866580D01*
X862330Y1256860D02*
Y1265360D01*
X781880Y1261110D02*
X790380D01*
X786130Y1256860D02*
Y1265360D01*
X690440Y1012190D02*
X698940D01*
X694690Y1007940D02*
Y1016440D01*
X614240Y1012190D02*
X622740D01*
X618490Y1007940D02*
Y1016440D01*
X1232730Y1371600D02*
X1241230D01*
X1236980Y1367350D02*
Y1375850D01*
X1156530Y1371600D02*
X1165030D01*
X1160780Y1367350D02*
Y1375850D01*
X956100Y1189990D02*
X961600D01*
X958850Y1187240D02*
Y1192740D01*
X930700Y1189990D02*
X936200D01*
X933450Y1187240D02*
Y1192740D01*
X956100Y1261110D02*
X961600D01*
X958850Y1258360D02*
Y1263860D01*
X930700Y1261110D02*
X936200D01*
X933450Y1258360D02*
Y1263860D01*
X763060Y1012190D02*
X768560D01*
X765810Y1009440D02*
Y1014940D01*
X737660Y1012190D02*
X743160D01*
X740410Y1009440D02*
Y1014940D01*
X1455770Y984250D02*
X1467770D01*
X1461770Y978250D02*
Y990250D01*
X1455770Y1060450D02*
X1467770D01*
X1461770Y1054450D02*
Y1066450D01*
X1455770Y1136650D02*
X1467770D01*
X1461770Y1130650D02*
Y1142650D01*
X1061510Y1371600D02*
X1067010D01*
X1064260Y1368850D02*
Y1374350D01*
X1036110Y1371600D02*
X1041610D01*
X1038860Y1368850D02*
Y1374350D01*
X956100Y1154430D02*
X961600D01*
X958850Y1151680D02*
Y1157180D01*
X930700Y1154430D02*
X936200D01*
X933450Y1151680D02*
Y1157180D01*
X794580Y1228090D02*
X803080D01*
X798830Y1223840D02*
Y1232340D01*
X718380Y1228090D02*
X726880D01*
X722630Y1223840D02*
Y1232340D01*
X690440Y930910D02*
X698940D01*
X694690Y926660D02*
Y935160D01*
X614240Y930910D02*
X622740D01*
X618490Y926660D02*
Y935160D01*
X956100Y1225550D02*
X961600D01*
X958850Y1222800D02*
Y1228300D01*
X930700Y1225550D02*
X936200D01*
X933450Y1222800D02*
Y1228300D01*
X763060Y930910D02*
X768560D01*
X765810Y928160D02*
Y933660D01*
X737660Y930910D02*
X743160D01*
X740410Y928160D02*
Y933660D01*
X938570Y920750D02*
X943570D01*
X941070Y918250D02*
Y923250D01*
X938570Y905750D02*
X943570D01*
X941070Y903250D02*
Y908250D01*
X829100Y925830D02*
X834600D01*
X831850Y923080D02*
Y928580D01*
X829100Y900430D02*
X834600D01*
X831850Y897680D02*
Y903180D01*
X938570Y1007110D02*
X943570D01*
X941070Y1004610D02*
Y1009610D01*
X938570Y992110D02*
X943570D01*
X941070Y989610D02*
Y994610D01*
X829100Y1017270D02*
X834600D01*
X831850Y1014520D02*
Y1020020D01*
X829100Y991870D02*
X834600D01*
X831850Y989120D02*
Y994620D01*
X943650Y1083310D02*
X948650D01*
X946150Y1080810D02*
Y1085810D01*
X943650Y1068310D02*
X948650D01*
X946150Y1065810D02*
Y1070810D01*
X829100Y1088390D02*
X834600D01*
X831850Y1085640D02*
Y1091140D01*
X829100Y1062990D02*
X834600D01*
X831850Y1060240D02*
Y1065740D01*
X954830Y1336040D02*
X960330D01*
X957580Y1333290D02*
Y1338790D01*
X929430Y1336040D02*
X934930D01*
X932180Y1333290D02*
Y1338790D01*
X1549190Y1214120D02*
X1554690D01*
X1551940Y1211370D02*
Y1216870D01*
X1523790Y1214120D02*
X1529290D01*
X1526540Y1211370D02*
Y1216870D01*
M02*
