%FSLAX44Y44*%
%MOMM*%
G71*
G01*
G75*
G04 Layer_Color=2752767*
%ADD10C,0.2000*%
%ADD11C,0.4000*%
%ADD12C,0.3000*%
%ADD13C,1.3000*%
%ADD14C,1.4000*%
%ADD15C,2.0000*%
%ADD16C,1.6900*%
%ADD17R,1.6900X1.6900*%
%ADD18C,4.7600*%
%ADD19C,1.5240*%
%ADD20R,1.5000X1.5000*%
%ADD21C,1.5000*%
%ADD22C,1.0000*%
%ADD23C,1.0160*%
%ADD24R,1.6660X1.6660*%
%ADD25R,1.7160X1.7160*%
%ADD26O,1.6660X2.5160*%
%ADD27C,2.1060*%
%ADD28C,4.2760*%
%ADD29C,2.0160*%
%ADD30C,1.9160*%
%ADD31C,1.8660*%
%ADD32C,1.5660*%
%ADD33C,2.2160*%
%ADD34C,1.5160*%
%ADD35C,0.1000*%
%ADD36C,0.2540*%
%ADD37C,0.1500*%
%ADD38C,1.5032*%
%ADD39C,1.6032*%
%ADD40C,2.2032*%
%ADD41C,1.8932*%
%ADD42R,1.8932X1.8932*%
%ADD43C,4.9632*%
%ADD44C,1.7272*%
%ADD45R,1.7032X1.7032*%
%ADD46C,1.7032*%
%ADD47C,1.2032*%
%ADD48C,0.1693*%
%ADD49C,0.1016*%
%ADD50C,0.4064*%
%ADD51C,0.2032*%
%ADD52C,0.1185*%
%ADD53C,0.3556*%
D35*
X1010990Y1228380D02*
Y1238540D01*
X1021150D01*
Y1228380D01*
X1010990D01*
Y1263940D02*
Y1274100D01*
X1021150D01*
Y1263940D01*
X1010990D01*
Y1246160D02*
Y1256320D01*
X1021150D01*
Y1246160D01*
X1010990D01*
Y1281720D02*
Y1291880D01*
X1021150D01*
Y1281720D01*
X1010990D01*
Y1299500D02*
Y1309660D01*
X1021150D01*
Y1299500D01*
X1010990D01*
Y1175030D02*
Y1185190D01*
X1021150D01*
Y1175030D01*
X1010990D01*
Y1096390D02*
Y1106550D01*
X1021150D01*
Y1096390D01*
X1010990D01*
Y1075890D02*
Y1086050D01*
X1021150D01*
Y1075890D01*
X1010990D01*
Y1210600D02*
Y1220760D01*
X1021150D01*
Y1210600D01*
X1010990D01*
Y1192820D02*
Y1202980D01*
X1021150D01*
Y1192820D01*
X1010990D01*
Y1007490D02*
Y1017650D01*
X1021150D01*
Y1007490D01*
X1010990D01*
Y986720D02*
Y996880D01*
X1021150D01*
Y986720D01*
X1010990D01*
X1322070Y1247430D02*
X1316990Y1257590D01*
X1327150D01*
X1322070Y1247430D01*
Y1287430D02*
X1316990Y1297590D01*
X1327150D01*
X1322070Y1287430D01*
Y1207430D02*
X1316990Y1217590D01*
X1327150D01*
X1322070Y1207430D01*
Y1131230D02*
X1316990Y1141390D01*
X1327150D01*
X1322070Y1131230D01*
Y1055030D02*
X1316990Y1065190D01*
X1327150D01*
X1322070Y1055030D01*
Y978830D02*
X1316990Y988990D01*
X1327150D01*
X1322070Y978830D01*
Y902630D02*
X1316990Y912790D01*
X1327150D01*
X1322070Y902630D01*
X1010990Y918590D02*
Y928750D01*
X1021150D01*
Y918590D01*
X1010990D01*
Y898090D02*
Y908250D01*
X1021150D01*
Y898090D01*
X1010990D01*
X579140Y1218410D02*
X581680Y1220950D01*
X584220D01*
X581680Y1223490D01*
X584220Y1226030D01*
X581680D01*
X579140Y1228570D01*
X576600Y1226030D01*
X574060D01*
X576600Y1223490D01*
X574060Y1220950D01*
X576600D01*
X579140Y1218410D01*
X607540Y1232260D02*
X610080Y1234800D01*
X612620D01*
X610080Y1237340D01*
X612620Y1239880D01*
X610080D01*
X607540Y1242420D01*
X605000Y1239880D01*
X602460D01*
X605000Y1237340D01*
X602460Y1234800D01*
X605000D01*
X607540Y1232260D01*
X579140Y1246110D02*
X581680Y1248650D01*
X584220D01*
X581680Y1251190D01*
X584220Y1253730D01*
X581680D01*
X579140Y1256270D01*
X576600Y1253730D01*
X574060D01*
X576600Y1251190D01*
X574060Y1248650D01*
X576600D01*
X579140Y1246110D01*
X607540Y1259960D02*
X610080Y1262500D01*
X612620D01*
X610080Y1265040D01*
X612620Y1267580D01*
X610080D01*
X607540Y1270120D01*
X605000Y1267580D01*
X602460D01*
X605000Y1265040D01*
X602460Y1262500D01*
X605000D01*
X607540Y1259960D01*
X579140Y1273810D02*
X581680Y1276350D01*
X584220D01*
X581680Y1278890D01*
X584220Y1281430D01*
X581680D01*
X579140Y1283970D01*
X576600Y1281430D01*
X574060D01*
X576600Y1278890D01*
X574060Y1276350D01*
X576600D01*
X579140Y1273810D01*
X607540Y1287660D02*
X610080Y1290200D01*
X612620D01*
X610080Y1292740D01*
X612620Y1295280D01*
X610080D01*
X607540Y1297820D01*
X605000Y1295280D01*
X602460D01*
X605000Y1292740D01*
X602460Y1290200D01*
X605000D01*
X607540Y1287660D01*
X579140Y1301510D02*
X581680Y1304050D01*
X584220D01*
X581680Y1306590D01*
X584220Y1309130D01*
X581680D01*
X579140Y1311670D01*
X576600Y1309130D01*
X574060D01*
X576600Y1306590D01*
X574060Y1304050D01*
X576600D01*
X579140Y1301510D01*
X607540Y1315360D02*
X610080Y1317900D01*
X612620D01*
X610080Y1320440D01*
X612620Y1322980D01*
X610080D01*
X607540Y1325520D01*
X605000Y1322980D01*
X602460D01*
X605000Y1320440D01*
X602460Y1317900D01*
X605000D01*
X607540Y1315360D01*
X579140Y1329210D02*
X581680Y1331750D01*
X584220D01*
X581680Y1334290D01*
X584220Y1336830D01*
X581680D01*
X579140Y1339370D01*
X576600Y1336830D01*
X574060D01*
X576600Y1334290D01*
X574060Y1331750D01*
X576600D01*
X579140Y1329210D01*
X588260Y1398760D02*
X590800Y1403840D01*
X588260Y1408920D01*
X593340Y1406380D01*
X598420Y1408920D01*
X595880Y1403840D01*
X598420Y1398760D01*
X593340Y1401300D01*
X588260Y1398760D01*
Y1148860D02*
X590800Y1153940D01*
X588260Y1159020D01*
X593340Y1156480D01*
X598420Y1159020D01*
X595880Y1153940D01*
X598420Y1148860D01*
X593340Y1151400D01*
X588260Y1148860D01*
X1094740Y820420D02*
Y817880D01*
X1099820D01*
Y820420D01*
X1102360D01*
Y825500D01*
X1099820D01*
Y828040D01*
X1094740D01*
Y825500D01*
X1092200D01*
Y820420D01*
X1094740D01*
X1069340D02*
Y817880D01*
X1074420D01*
Y820420D01*
X1076960D01*
Y825500D01*
X1074420D01*
Y828040D01*
X1069340D01*
Y825500D01*
X1066800D01*
Y820420D01*
X1069340D01*
X1043940D02*
Y817880D01*
X1049020D01*
Y820420D01*
X1051560D01*
Y825500D01*
X1049020D01*
Y828040D01*
X1043940D01*
Y825500D01*
X1041400D01*
Y820420D01*
X1043940D01*
X955040Y817880D02*
X957580D01*
X960120Y820420D01*
X962660Y817880D01*
X965200D01*
Y820420D01*
X962660Y822960D01*
X965200Y825500D01*
Y828040D01*
X962660D01*
X960120Y825500D01*
X957580Y828040D01*
X955040D01*
Y825500D01*
X957580Y822960D01*
X955040Y820420D01*
Y817880D01*
X929640D02*
X932180D01*
X934720Y820420D01*
X937260Y817880D01*
X939800D01*
Y820420D01*
X937260Y822960D01*
X939800Y825500D01*
Y828040D01*
X937260D01*
X934720Y825500D01*
X932180Y828040D01*
X929640D01*
Y825500D01*
X932180Y822960D01*
X929640Y820420D01*
Y817880D01*
X857250Y1296670D02*
X862330Y1301750D01*
X867410Y1296670D01*
X862330Y1291590D01*
X857250Y1296670D01*
X781050D02*
X786130Y1301750D01*
X791210Y1296670D01*
X786130Y1291590D01*
X781050Y1296670D01*
X857250Y1118870D02*
X862330Y1123950D01*
X867410Y1118870D01*
X862330Y1113790D01*
X857250Y1118870D01*
X781050D02*
X786130Y1123950D01*
X791210Y1118870D01*
X786130Y1113790D01*
X781050Y1118870D01*
X953770Y1291590D02*
Y1301750D01*
X963930D01*
Y1291590D01*
X953770D01*
X955802Y1293622D02*
Y1299718D01*
X961898D01*
Y1293622D01*
X955802D01*
X928370Y1291590D02*
Y1301750D01*
X938530D01*
Y1291590D01*
X928370D01*
X930402Y1293622D02*
Y1299718D01*
X936498D01*
Y1293622D01*
X930402D01*
X953770Y1113790D02*
Y1123950D01*
X963930D01*
Y1113790D01*
X953770D01*
X955802Y1115822D02*
Y1121918D01*
X961898D01*
Y1115822D01*
X955802D01*
X928370Y1113790D02*
Y1123950D01*
X938530D01*
Y1113790D01*
X928370D01*
X930402Y1115822D02*
Y1121918D01*
X936498D01*
Y1115822D01*
X930402D01*
X1403350Y1294130D02*
X1408430Y1299210D01*
X1413510Y1294130D01*
X1408430Y1289050D01*
X1403350Y1294130D01*
X1479550D02*
X1484630Y1299210D01*
X1489710Y1294130D01*
X1484630Y1289050D01*
X1479550Y1294130D01*
X781050Y1189990D02*
X786130Y1195070D01*
X791210Y1189990D01*
X786130Y1184910D01*
X781050Y1189990D01*
X857250D02*
X862330Y1195070D01*
X867410Y1189990D01*
X862330Y1184910D01*
X857250Y1189990D01*
Y1261110D02*
X862330Y1266190D01*
X867410Y1261110D01*
X862330Y1256030D01*
X857250Y1261110D01*
X781050D02*
X786130Y1266190D01*
X791210Y1261110D01*
X786130Y1256030D01*
X781050Y1261110D01*
X689610Y1012190D02*
X694690Y1017270D01*
X699770Y1012190D01*
X694690Y1007110D01*
X689610Y1012190D01*
X613410D02*
X618490Y1017270D01*
X623570Y1012190D01*
X618490Y1007110D01*
X613410Y1012190D01*
X1231900Y1371600D02*
X1236980Y1376680D01*
X1242060Y1371600D01*
X1236980Y1366520D01*
X1231900Y1371600D01*
X1155700D02*
X1160780Y1376680D01*
X1165860Y1371600D01*
X1160780Y1366520D01*
X1155700Y1371600D01*
X953770Y1184910D02*
Y1195070D01*
X963930D01*
Y1184910D01*
X953770D01*
X955802Y1186942D02*
Y1193038D01*
X961898D01*
Y1186942D01*
X955802D01*
X928370Y1184910D02*
Y1195070D01*
X938530D01*
Y1184910D01*
X928370D01*
X930402Y1186942D02*
Y1193038D01*
X936498D01*
Y1186942D01*
X930402D01*
X953770Y1256030D02*
Y1266190D01*
X963930D01*
Y1256030D01*
X953770D01*
X955802Y1258062D02*
Y1264158D01*
X961898D01*
Y1258062D01*
X955802D01*
X928370Y1256030D02*
Y1266190D01*
X938530D01*
Y1256030D01*
X928370D01*
X930402Y1258062D02*
Y1264158D01*
X936498D01*
Y1258062D01*
X930402D01*
X760730Y1007110D02*
Y1017270D01*
X770890D01*
Y1007110D01*
X760730D01*
X762762Y1009142D02*
Y1015238D01*
X768858D01*
Y1009142D01*
X762762D01*
X735330Y1007110D02*
Y1017270D01*
X745490D01*
Y1007110D01*
X735330D01*
X737362Y1009142D02*
Y1015238D01*
X743458D01*
Y1009142D01*
X737362D01*
X1059180Y1366520D02*
Y1376680D01*
X1069340D01*
Y1366520D01*
X1059180D01*
X1061212Y1368552D02*
Y1374648D01*
X1067308D01*
Y1368552D01*
X1061212D01*
X1033780Y1366520D02*
Y1376680D01*
X1043940D01*
Y1366520D01*
X1033780D01*
X1035812Y1368552D02*
Y1374648D01*
X1041908D01*
Y1368552D01*
X1035812D01*
X953770Y1149350D02*
Y1159510D01*
X963930D01*
Y1149350D01*
X953770D01*
X955802Y1151382D02*
Y1157478D01*
X961898D01*
Y1151382D01*
X955802D01*
X928370Y1149350D02*
Y1159510D01*
X938530D01*
Y1149350D01*
X928370D01*
X930402Y1151382D02*
Y1157478D01*
X936498D01*
Y1151382D01*
X930402D01*
X793750Y1228090D02*
X798830Y1233170D01*
X803910Y1228090D01*
X798830Y1223010D01*
X793750Y1228090D01*
X717550D02*
X722630Y1233170D01*
X727710Y1228090D01*
X722630Y1223010D01*
X717550Y1228090D01*
X689610Y930910D02*
X694690Y935990D01*
X699770Y930910D01*
X694690Y925830D01*
X689610Y930910D01*
X613410D02*
X618490Y935990D01*
X623570Y930910D01*
X618490Y925830D01*
X613410Y930910D01*
X953770Y1220470D02*
Y1230630D01*
X963930D01*
Y1220470D01*
X953770D01*
X955802Y1222502D02*
Y1228598D01*
X961898D01*
Y1222502D01*
X955802D01*
X928370Y1220470D02*
Y1230630D01*
X938530D01*
Y1220470D01*
X928370D01*
X930402Y1222502D02*
Y1228598D01*
X936498D01*
Y1222502D01*
X930402D01*
X760730Y925830D02*
Y935990D01*
X770890D01*
Y925830D01*
X760730D01*
X762762Y927862D02*
Y933958D01*
X768858D01*
Y927862D01*
X762762D01*
X735330Y925830D02*
Y935990D01*
X745490D01*
Y925830D01*
X735330D01*
X737362Y927862D02*
Y933958D01*
X743458D01*
Y927862D01*
X737362D01*
X941070Y915670D02*
X935990Y925830D01*
X946150D01*
X941070Y915670D01*
Y917702D02*
X938022Y923798D01*
X944118D01*
X941070Y917702D01*
Y900670D02*
X935990Y910830D01*
X946150D01*
X941070Y900670D01*
Y902702D02*
X938022Y908798D01*
X944118D01*
X941070Y902702D01*
X826770Y920750D02*
Y930910D01*
X836930D01*
Y920750D01*
X826770D01*
X828802Y922782D02*
Y928878D01*
X834898D01*
Y922782D01*
X828802D01*
X826770Y895350D02*
Y905510D01*
X836930D01*
Y895350D01*
X826770D01*
X828802Y897382D02*
Y903478D01*
X834898D01*
Y897382D01*
X828802D01*
X941070Y1002030D02*
X935990Y1012190D01*
X946150D01*
X941070Y1002030D01*
Y1004062D02*
X938022Y1010158D01*
X944118D01*
X941070Y1004062D01*
Y987030D02*
X935990Y997190D01*
X946150D01*
X941070Y987030D01*
Y989062D02*
X938022Y995158D01*
X944118D01*
X941070Y989062D01*
X826770Y1012190D02*
Y1022350D01*
X836930D01*
Y1012190D01*
X826770D01*
X828802Y1014222D02*
Y1020318D01*
X834898D01*
Y1014222D01*
X828802D01*
X826770Y986790D02*
Y996950D01*
X836930D01*
Y986790D01*
X826770D01*
X828802Y988822D02*
Y994918D01*
X834898D01*
Y988822D01*
X828802D01*
X946150Y1078230D02*
X941070Y1088390D01*
X951230D01*
X946150Y1078230D01*
Y1080262D02*
X943102Y1086358D01*
X949198D01*
X946150Y1080262D01*
Y1063230D02*
X941070Y1073390D01*
X951230D01*
X946150Y1063230D01*
Y1065262D02*
X943102Y1071358D01*
X949198D01*
X946150Y1065262D01*
X826770Y1083310D02*
Y1093470D01*
X836930D01*
Y1083310D01*
X826770D01*
X828802Y1085342D02*
Y1091438D01*
X834898D01*
Y1085342D01*
X828802D01*
X826770Y1057910D02*
Y1068070D01*
X836930D01*
Y1057910D01*
X826770D01*
X828802Y1059942D02*
Y1066038D01*
X834898D01*
Y1059942D01*
X828802D01*
X952500Y1330960D02*
Y1341120D01*
X962660D01*
Y1330960D01*
X952500D01*
X954532Y1332992D02*
Y1339088D01*
X960628D01*
Y1332992D01*
X954532D01*
X927100Y1330960D02*
Y1341120D01*
X937260D01*
Y1330960D01*
X927100D01*
X929132Y1332992D02*
Y1339088D01*
X935228D01*
Y1332992D01*
X929132D01*
X1546860Y1209040D02*
Y1219200D01*
X1557020D01*
Y1209040D01*
X1546860D01*
X1548892Y1211072D02*
Y1217168D01*
X1554988D01*
Y1211072D01*
X1548892D01*
X1521460Y1209040D02*
Y1219200D01*
X1531620D01*
Y1209040D01*
X1521460D01*
X1523492Y1211072D02*
Y1217168D01*
X1529588D01*
Y1211072D01*
X1523492D01*
X1864896Y1210564D02*
X1858800Y1222756D01*
X1870992D01*
X1864896Y1210564D01*
Y1213104D02*
X1861340Y1220216D01*
X1868452D01*
X1864896Y1213104D01*
X1858800Y1180084D02*
Y1192276D01*
X1870992D01*
Y1180084D01*
X1858800D01*
X1861340Y1182624D02*
Y1189736D01*
X1868452D01*
Y1182624D01*
X1861340D01*
X1858800Y1155700D02*
X1864896Y1161796D01*
X1870992Y1155700D01*
X1864896Y1149604D01*
X1858800Y1155700D01*
Y1119124D02*
X1861848D01*
X1864896Y1122172D01*
X1867944Y1119124D01*
X1870992D01*
Y1122172D01*
X1867944Y1125220D01*
X1870992Y1128268D01*
Y1131316D01*
X1867944D01*
X1864896Y1128268D01*
X1861848Y1131316D01*
X1858800D01*
Y1128268D01*
X1861848Y1125220D01*
X1858800Y1122172D01*
Y1119124D01*
X1861848Y1091692D02*
Y1088644D01*
X1867944D01*
Y1091692D01*
X1870992D01*
Y1097788D01*
X1867944D01*
Y1100836D01*
X1861848D01*
Y1097788D01*
X1858800D01*
Y1091692D01*
X1861848D01*
X1864896Y1058164D02*
X1867944Y1061212D01*
X1870992D01*
X1867944Y1064260D01*
X1870992Y1067308D01*
X1867944D01*
X1864896Y1070356D01*
X1861848Y1067308D01*
X1858800D01*
X1861848Y1064260D01*
X1858800Y1061212D01*
X1861848D01*
X1864896Y1058164D01*
X1858800Y997204D02*
X1861848Y1003300D01*
X1858800Y1009396D01*
X1864896Y1006348D01*
X1870992Y1009396D01*
X1867944Y1003300D01*
X1870992Y997204D01*
X1864896Y1000252D01*
X1858800Y997204D01*
Y966724D02*
Y978916D01*
X1870992D01*
Y966724D01*
X1858800D01*
X1864896Y905764D02*
X1858800Y917956D01*
X1870992D01*
X1864896Y905764D01*
D36*
X1858800Y802635D02*
Y787400D01*
X1866418D01*
X1868957Y789939D01*
Y800096D01*
X1866418Y802635D01*
X1858800D01*
X1874035Y797557D02*
Y787400D01*
Y792478D01*
X1876574Y795017D01*
X1879113Y797557D01*
X1881653D01*
X1889270Y787400D02*
X1894348D01*
X1891809D01*
Y797557D01*
X1889270D01*
X1901966Y787400D02*
X1907044D01*
X1904505D01*
Y802635D01*
X1901966D01*
X1914662Y787400D02*
X1919740D01*
X1917201D01*
Y802635D01*
X1914662D01*
X1942593D02*
Y787400D01*
X1950210D01*
X1952750Y789939D01*
Y800096D01*
X1950210Y802635D01*
X1942593D01*
X1957828Y797557D02*
Y787400D01*
Y792478D01*
X1960367Y795017D01*
X1962906Y797557D01*
X1965446D01*
X1975602D02*
X1980681D01*
X1983220Y795017D01*
Y787400D01*
X1975602D01*
X1973063Y789939D01*
X1975602Y792478D01*
X1983220D01*
X1988298Y797557D02*
Y789939D01*
X1990837Y787400D01*
X1993376Y789939D01*
X1995916Y787400D01*
X1998455Y789939D01*
Y797557D01*
X2003533Y787400D02*
X2008611D01*
X2006072D01*
Y797557D01*
X2003533D01*
X2016229Y787400D02*
Y797557D01*
X2023847D01*
X2026386Y795017D01*
Y787400D01*
X2036543Y782322D02*
X2039082D01*
X2041621Y784861D01*
Y797557D01*
X2034003D01*
X2031464Y795017D01*
Y789939D01*
X2034003Y787400D01*
X2041621D01*
X2046699D02*
Y789939D01*
X2049238D01*
Y787400D01*
X2046699D01*
X1996941Y1224275D02*
X1991863Y1221736D01*
X1986784Y1216657D01*
Y1211579D01*
X1989324Y1209040D01*
X1994402D01*
X1996941Y1211579D01*
Y1214118D01*
X1994402Y1216657D01*
X1986784D01*
X2163521Y1221736D02*
X2166060Y1224275D01*
X2171139D01*
X2173678Y1221736D01*
Y1211579D01*
X2171139Y1209040D01*
X2166060D01*
X2163521Y1211579D01*
Y1221736D01*
X2178756Y1209040D02*
Y1211579D01*
X2181295D01*
Y1209040D01*
X2178756D01*
X2201609Y1224275D02*
X2191452D01*
Y1216657D01*
X2196530Y1219197D01*
X2199070D01*
X2201609Y1216657D01*
Y1211579D01*
X2199070Y1209040D01*
X2193991D01*
X2191452Y1211579D01*
X2206687Y1209040D02*
Y1219197D01*
X2209226D01*
X2211765Y1216657D01*
Y1209040D01*
Y1216657D01*
X2214305Y1219197D01*
X2216844Y1216657D01*
Y1209040D01*
X2221922D02*
Y1219197D01*
X2224461D01*
X2227000Y1216657D01*
Y1209040D01*
Y1216657D01*
X2229540Y1219197D01*
X2232079Y1216657D01*
Y1209040D01*
X2257471D02*
X2252392Y1214118D01*
Y1219197D01*
X2257471Y1224275D01*
X2265088Y1209040D02*
X2270167D01*
X2267627D01*
Y1224275D01*
X2265088Y1221736D01*
X2277784Y1211579D02*
X2280323Y1209040D01*
X2285402D01*
X2287941Y1211579D01*
Y1221736D01*
X2285402Y1224275D01*
X2280323D01*
X2277784Y1221736D01*
Y1219197D01*
X2280323Y1216657D01*
X2287941D01*
X2293019Y1209040D02*
Y1211579D01*
X2295558D01*
Y1209040D01*
X2293019D01*
X2315872Y1224275D02*
X2310793Y1221736D01*
X2305715Y1216657D01*
Y1211579D01*
X2308254Y1209040D01*
X2313333D01*
X2315872Y1211579D01*
Y1214118D01*
X2313333Y1216657D01*
X2305715D01*
X2320950Y1221736D02*
X2323489Y1224275D01*
X2328568D01*
X2331107Y1221736D01*
Y1219197D01*
X2328568Y1216657D01*
X2331107Y1214118D01*
Y1211579D01*
X2328568Y1209040D01*
X2323489D01*
X2320950Y1211579D01*
Y1214118D01*
X2323489Y1216657D01*
X2320950Y1219197D01*
Y1221736D01*
X2323489Y1216657D02*
X2328568D01*
X2346342Y1224275D02*
X2336185D01*
Y1216657D01*
X2341263Y1219197D01*
X2343803D01*
X2346342Y1216657D01*
Y1211579D01*
X2343803Y1209040D01*
X2338724D01*
X2336185Y1211579D01*
X2351420Y1209040D02*
Y1219197D01*
X2353960D01*
X2356499Y1216657D01*
Y1209040D01*
Y1216657D01*
X2359038Y1219197D01*
X2361577Y1216657D01*
Y1209040D01*
X2366655D02*
X2371734D01*
X2369194D01*
Y1219197D01*
X2366655D01*
X2379351Y1209040D02*
X2384430D01*
X2381890D01*
Y1224275D01*
X2379351D01*
X2392047Y1209040D02*
X2397126Y1214118D01*
Y1219197D01*
X2392047Y1224275D01*
X3052262Y1209040D02*
Y1224275D01*
X3059879D01*
X3062419Y1221736D01*
Y1216657D01*
X3059879Y1214118D01*
X3052262D01*
X3067497Y1224275D02*
X3077654D01*
X3072575D01*
Y1209040D01*
X3082732Y1224275D02*
Y1209040D01*
Y1216657D01*
X3092889D01*
Y1224275D01*
Y1209040D01*
X3180247D02*
Y1224275D01*
X3187864D01*
X3190403Y1221736D01*
Y1216657D01*
X3187864Y1214118D01*
X3180247D01*
X3185325D02*
X3190403Y1209040D01*
X3198021D02*
X3203099D01*
X3205638Y1211579D01*
Y1216657D01*
X3203099Y1219197D01*
X3198021D01*
X3195482Y1216657D01*
Y1211579D01*
X3198021Y1209040D01*
X3210717Y1219197D02*
Y1211579D01*
X3213256Y1209040D01*
X3220873D01*
Y1219197D01*
X3225952Y1209040D02*
Y1219197D01*
X3233569D01*
X3236108Y1216657D01*
Y1209040D01*
X3251343Y1224275D02*
Y1209040D01*
X3243726D01*
X3241187Y1211579D01*
Y1216657D01*
X3243726Y1219197D01*
X3251343D01*
X1996941Y1178560D02*
X1986784D01*
X1996941Y1188717D01*
Y1191256D01*
X1994402Y1193795D01*
X1989324D01*
X1986784Y1191256D01*
X2002020D02*
X2004559Y1193795D01*
X2009637D01*
X2012176Y1191256D01*
Y1188717D01*
X2009637Y1186178D01*
X2012176Y1183638D01*
Y1181099D01*
X2009637Y1178560D01*
X2004559D01*
X2002020Y1181099D01*
Y1183638D01*
X2004559Y1186178D01*
X2002020Y1188717D01*
Y1191256D01*
X2004559Y1186178D02*
X2009637D01*
X2163521Y1191256D02*
X2166060Y1193795D01*
X2171139D01*
X2173678Y1191256D01*
Y1181099D01*
X2171139Y1178560D01*
X2166060D01*
X2163521Y1181099D01*
Y1191256D01*
X2178756Y1178560D02*
Y1181099D01*
X2181295D01*
Y1178560D01*
X2178756D01*
X2201609Y1193795D02*
X2191452D01*
Y1186178D01*
X2196530Y1188717D01*
X2199070D01*
X2201609Y1186178D01*
Y1181099D01*
X2199070Y1178560D01*
X2193991D01*
X2191452Y1181099D01*
X2216844Y1193795D02*
X2206687D01*
Y1186178D01*
X2211765Y1188717D01*
X2214305D01*
X2216844Y1186178D01*
Y1181099D01*
X2214305Y1178560D01*
X2209226D01*
X2206687Y1181099D01*
X2221922Y1178560D02*
Y1188717D01*
X2224461D01*
X2227000Y1186178D01*
Y1178560D01*
Y1186178D01*
X2229540Y1188717D01*
X2232079Y1186178D01*
Y1178560D01*
X2237157D02*
Y1188717D01*
X2239696D01*
X2242236Y1186178D01*
Y1178560D01*
Y1186178D01*
X2244775Y1188717D01*
X2247314Y1186178D01*
Y1178560D01*
X2272706D02*
X2267627Y1183638D01*
Y1188717D01*
X2272706Y1193795D01*
X2290480Y1178560D02*
X2280323D01*
X2290480Y1188717D01*
Y1191256D01*
X2287941Y1193795D01*
X2282863D01*
X2280323Y1191256D01*
X2295558Y1178560D02*
X2300637D01*
X2298098D01*
Y1193795D01*
X2295558Y1191256D01*
X2308254Y1178560D02*
Y1181099D01*
X2310793D01*
Y1178560D01*
X2308254D01*
X2331107Y1193795D02*
X2326028Y1191256D01*
X2320950Y1186178D01*
Y1181099D01*
X2323489Y1178560D01*
X2328568D01*
X2331107Y1181099D01*
Y1183638D01*
X2328568Y1186178D01*
X2320950D01*
X2346342Y1193795D02*
X2336185D01*
Y1186178D01*
X2341263Y1188717D01*
X2343803D01*
X2346342Y1186178D01*
Y1181099D01*
X2343803Y1178560D01*
X2338724D01*
X2336185Y1181099D01*
X2359038Y1178560D02*
Y1193795D01*
X2351420Y1186178D01*
X2361577D01*
X2366655Y1178560D02*
Y1188717D01*
X2369194D01*
X2371734Y1186178D01*
Y1178560D01*
Y1186178D01*
X2374273Y1188717D01*
X2376812Y1186178D01*
Y1178560D01*
X2381890D02*
X2386969D01*
X2384430D01*
Y1188717D01*
X2381890D01*
X2394586Y1178560D02*
X2399665D01*
X2397126D01*
Y1193795D01*
X2394586D01*
X2407282Y1178560D02*
X2412361Y1183638D01*
Y1188717D01*
X2407282Y1193795D01*
X3052262Y1178560D02*
Y1193795D01*
X3059879D01*
X3062419Y1191256D01*
Y1186178D01*
X3059879Y1183638D01*
X3052262D01*
X3067497Y1193795D02*
X3077654D01*
X3072575D01*
Y1178560D01*
X3082732Y1193795D02*
Y1178560D01*
Y1186178D01*
X3092889D01*
Y1193795D01*
Y1178560D01*
X3180247D02*
Y1193795D01*
X3187864D01*
X3190403Y1191256D01*
Y1186178D01*
X3187864Y1183638D01*
X3180247D01*
X3185325D02*
X3190403Y1178560D01*
X3198021D02*
X3203099D01*
X3205638Y1181099D01*
Y1186178D01*
X3203099Y1188717D01*
X3198021D01*
X3195482Y1186178D01*
Y1181099D01*
X3198021Y1178560D01*
X3210717Y1188717D02*
Y1181099D01*
X3213256Y1178560D01*
X3220873D01*
Y1188717D01*
X3225952Y1178560D02*
Y1188717D01*
X3233569D01*
X3236108Y1186178D01*
Y1178560D01*
X3251343Y1193795D02*
Y1178560D01*
X3243726D01*
X3241187Y1181099D01*
Y1186178D01*
X3243726Y1188717D01*
X3251343D01*
X1986784Y1148080D02*
X1991863D01*
X1989324D01*
Y1163315D01*
X1986784Y1160776D01*
X1999480D02*
X2002020Y1163315D01*
X2007098D01*
X2009637Y1160776D01*
Y1158237D01*
X2007098Y1155697D01*
X2009637Y1153158D01*
Y1150619D01*
X2007098Y1148080D01*
X2002020D01*
X1999480Y1150619D01*
Y1153158D01*
X2002020Y1155697D01*
X1999480Y1158237D01*
Y1160776D01*
X2002020Y1155697D02*
X2007098D01*
X2163521Y1160776D02*
X2166060Y1163315D01*
X2171139D01*
X2173678Y1160776D01*
Y1150619D01*
X2171139Y1148080D01*
X2166060D01*
X2163521Y1150619D01*
Y1160776D01*
X2178756Y1148080D02*
Y1150619D01*
X2181295D01*
Y1148080D01*
X2178756D01*
X2191452Y1160776D02*
X2193991Y1163315D01*
X2199070D01*
X2201609Y1160776D01*
Y1158237D01*
X2199070Y1155697D01*
X2201609Y1153158D01*
Y1150619D01*
X2199070Y1148080D01*
X2193991D01*
X2191452Y1150619D01*
Y1153158D01*
X2193991Y1155697D01*
X2191452Y1158237D01*
Y1160776D01*
X2193991Y1155697D02*
X2199070D01*
X2216844Y1163315D02*
X2206687D01*
Y1155697D01*
X2211765Y1158237D01*
X2214305D01*
X2216844Y1155697D01*
Y1150619D01*
X2214305Y1148080D01*
X2209226D01*
X2206687Y1150619D01*
X2221922Y1148080D02*
Y1158237D01*
X2224461D01*
X2227000Y1155697D01*
Y1148080D01*
Y1155697D01*
X2229540Y1158237D01*
X2232079Y1155697D01*
Y1148080D01*
X2237157D02*
Y1158237D01*
X2239696D01*
X2242236Y1155697D01*
Y1148080D01*
Y1155697D01*
X2244775Y1158237D01*
X2247314Y1155697D01*
Y1148080D01*
X2272706D02*
X2267627Y1153158D01*
Y1158237D01*
X2272706Y1163315D01*
X2280323Y1160776D02*
X2282863Y1163315D01*
X2287941D01*
X2290480Y1160776D01*
Y1158237D01*
X2287941Y1155697D01*
X2285402D01*
X2287941D01*
X2290480Y1153158D01*
Y1150619D01*
X2287941Y1148080D01*
X2282863D01*
X2280323Y1150619D01*
X2295558Y1160776D02*
X2298098Y1163315D01*
X2303176D01*
X2305715Y1160776D01*
Y1158237D01*
X2303176Y1155697D01*
X2300637D01*
X2303176D01*
X2305715Y1153158D01*
Y1150619D01*
X2303176Y1148080D01*
X2298098D01*
X2295558Y1150619D01*
X2310793Y1148080D02*
Y1150619D01*
X2313333D01*
Y1148080D01*
X2310793D01*
X2331107D02*
Y1163315D01*
X2323489Y1155697D01*
X2333646D01*
X2348881Y1163315D02*
X2343803Y1160776D01*
X2338724Y1155697D01*
Y1150619D01*
X2341264Y1148080D01*
X2346342D01*
X2348881Y1150619D01*
Y1153158D01*
X2346342Y1155697D01*
X2338724D01*
X2364116Y1163315D02*
X2353960D01*
Y1155697D01*
X2359038Y1158237D01*
X2361577D01*
X2364116Y1155697D01*
Y1150619D01*
X2361577Y1148080D01*
X2356499D01*
X2353960Y1150619D01*
X2369194Y1148080D02*
Y1158237D01*
X2371734D01*
X2374273Y1155697D01*
Y1148080D01*
Y1155697D01*
X2376812Y1158237D01*
X2379351Y1155697D01*
Y1148080D01*
X2384430D02*
X2389508D01*
X2386969D01*
Y1158237D01*
X2384430D01*
X2397126Y1148080D02*
X2402204D01*
X2399665D01*
Y1163315D01*
X2397126D01*
X2409821Y1148080D02*
X2414900Y1153158D01*
Y1158237D01*
X2409821Y1163315D01*
X3052262Y1148080D02*
Y1163315D01*
X3059879D01*
X3062419Y1160776D01*
Y1155697D01*
X3059879Y1153158D01*
X3052262D01*
X3067497Y1163315D02*
X3077654D01*
X3072575D01*
Y1148080D01*
X3082732Y1163315D02*
Y1148080D01*
Y1155697D01*
X3092889D01*
Y1163315D01*
Y1148080D01*
X3180247D02*
Y1163315D01*
X3187864D01*
X3190403Y1160776D01*
Y1155697D01*
X3187864Y1153158D01*
X3180247D01*
X3185325D02*
X3190403Y1148080D01*
X3198021D02*
X3203099D01*
X3205638Y1150619D01*
Y1155697D01*
X3203099Y1158237D01*
X3198021D01*
X3195482Y1155697D01*
Y1150619D01*
X3198021Y1148080D01*
X3210717Y1158237D02*
Y1150619D01*
X3213256Y1148080D01*
X3220873D01*
Y1158237D01*
X3225952Y1148080D02*
Y1158237D01*
X3233569D01*
X3236108Y1155697D01*
Y1148080D01*
X3251343Y1163315D02*
Y1148080D01*
X3243726D01*
X3241187Y1150619D01*
Y1155697D01*
X3243726Y1158237D01*
X3251343D01*
X1996941Y1117600D02*
X1986784D01*
X1996941Y1127757D01*
Y1130296D01*
X1994402Y1132835D01*
X1989324D01*
X1986784Y1130296D01*
X2163521D02*
X2166060Y1132835D01*
X2171139D01*
X2173678Y1130296D01*
Y1120139D01*
X2171139Y1117600D01*
X2166060D01*
X2163521Y1120139D01*
Y1130296D01*
X2178756Y1117600D02*
Y1120139D01*
X2181295D01*
Y1117600D01*
X2178756D01*
X2191452Y1120139D02*
X2193991Y1117600D01*
X2199070D01*
X2201609Y1120139D01*
Y1130296D01*
X2199070Y1132835D01*
X2193991D01*
X2191452Y1130296D01*
Y1127757D01*
X2193991Y1125218D01*
X2201609D01*
X2206687Y1117600D02*
Y1127757D01*
X2209226D01*
X2211765Y1125218D01*
Y1117600D01*
Y1125218D01*
X2214305Y1127757D01*
X2216844Y1125218D01*
Y1117600D01*
X2221922D02*
Y1127757D01*
X2224461D01*
X2227000Y1125218D01*
Y1117600D01*
Y1125218D01*
X2229540Y1127757D01*
X2232079Y1125218D01*
Y1117600D01*
X2257471D02*
X2252392Y1122678D01*
Y1127757D01*
X2257471Y1132835D01*
X2265088Y1130296D02*
X2267627Y1132835D01*
X2272706D01*
X2275245Y1130296D01*
Y1127757D01*
X2272706Y1125218D01*
X2270167D01*
X2272706D01*
X2275245Y1122678D01*
Y1120139D01*
X2272706Y1117600D01*
X2267627D01*
X2265088Y1120139D01*
X2290480Y1132835D02*
X2280323D01*
Y1125218D01*
X2285402Y1127757D01*
X2287941D01*
X2290480Y1125218D01*
Y1120139D01*
X2287941Y1117600D01*
X2282863D01*
X2280323Y1120139D01*
X2295558Y1117600D02*
Y1120139D01*
X2298098D01*
Y1117600D01*
X2295558D01*
X2315872D02*
Y1132835D01*
X2308254Y1125218D01*
X2318411D01*
X2323489Y1130296D02*
X2326028Y1132835D01*
X2331107D01*
X2333646Y1130296D01*
Y1127757D01*
X2331107Y1125218D01*
X2328568D01*
X2331107D01*
X2333646Y1122678D01*
Y1120139D01*
X2331107Y1117600D01*
X2326028D01*
X2323489Y1120139D01*
X2338724Y1130296D02*
X2341264Y1132835D01*
X2346342D01*
X2348881Y1130296D01*
Y1127757D01*
X2346342Y1125218D01*
X2343803D01*
X2346342D01*
X2348881Y1122678D01*
Y1120139D01*
X2346342Y1117600D01*
X2341264D01*
X2338724Y1120139D01*
X2353960Y1117600D02*
Y1127757D01*
X2356499D01*
X2359038Y1125218D01*
Y1117600D01*
Y1125218D01*
X2361577Y1127757D01*
X2364116Y1125218D01*
Y1117600D01*
X2369194D02*
X2374273D01*
X2371734D01*
Y1127757D01*
X2369194D01*
X2381890Y1117600D02*
X2386969D01*
X2384430D01*
Y1132835D01*
X2381890D01*
X2394586Y1117600D02*
X2399665Y1122678D01*
Y1127757D01*
X2394586Y1132835D01*
X3052262Y1117600D02*
Y1132835D01*
X3059879D01*
X3062419Y1130296D01*
Y1125218D01*
X3059879Y1122678D01*
X3052262D01*
X3067497Y1132835D02*
X3077654D01*
X3072575D01*
Y1117600D01*
X3082732Y1132835D02*
Y1117600D01*
Y1125218D01*
X3092889D01*
Y1132835D01*
Y1117600D01*
X3180247D02*
Y1132835D01*
X3187864D01*
X3190403Y1130296D01*
Y1125218D01*
X3187864Y1122678D01*
X3180247D01*
X3185325D02*
X3190403Y1117600D01*
X3198021D02*
X3203099D01*
X3205638Y1120139D01*
Y1125218D01*
X3203099Y1127757D01*
X3198021D01*
X3195482Y1125218D01*
Y1120139D01*
X3198021Y1117600D01*
X3210717Y1127757D02*
Y1120139D01*
X3213256Y1117600D01*
X3220873D01*
Y1127757D01*
X3225952Y1117600D02*
Y1127757D01*
X3233569D01*
X3236108Y1125218D01*
Y1117600D01*
X3251343Y1132835D02*
Y1117600D01*
X3243726D01*
X3241187Y1120139D01*
Y1125218D01*
X3243726Y1127757D01*
X3251343D01*
X1986784Y1099816D02*
X1989324Y1102355D01*
X1994402D01*
X1996941Y1099816D01*
Y1097277D01*
X1994402Y1094737D01*
X1991863D01*
X1994402D01*
X1996941Y1092198D01*
Y1089659D01*
X1994402Y1087120D01*
X1989324D01*
X1986784Y1089659D01*
X2163521Y1087120D02*
X2168599D01*
X2166060D01*
Y1102355D01*
X2163521Y1099816D01*
X2176217Y1087120D02*
Y1097277D01*
X2178756D01*
X2181295Y1094737D01*
Y1087120D01*
Y1094737D01*
X2183835Y1097277D01*
X2186374Y1094737D01*
Y1087120D01*
X2191452D02*
Y1097277D01*
X2193991D01*
X2196530Y1094737D01*
Y1087120D01*
Y1094737D01*
X2199070Y1097277D01*
X2201609Y1094737D01*
Y1087120D01*
X2227000D02*
X2221922Y1092198D01*
Y1097277D01*
X2227000Y1102355D01*
X2234618Y1099816D02*
X2237157Y1102355D01*
X2242236D01*
X2244775Y1099816D01*
Y1097277D01*
X2242236Y1094737D01*
X2239696D01*
X2242236D01*
X2244775Y1092198D01*
Y1089659D01*
X2242236Y1087120D01*
X2237157D01*
X2234618Y1089659D01*
X2249853D02*
X2252392Y1087120D01*
X2257471D01*
X2260010Y1089659D01*
Y1099816D01*
X2257471Y1102355D01*
X2252392D01*
X2249853Y1099816D01*
Y1097277D01*
X2252392Y1094737D01*
X2260010D01*
X2265088Y1087120D02*
Y1089659D01*
X2267627D01*
Y1087120D01*
X2265088D01*
X2277784Y1099816D02*
X2280323Y1102355D01*
X2285402D01*
X2287941Y1099816D01*
Y1097277D01*
X2285402Y1094737D01*
X2282862D01*
X2285402D01*
X2287941Y1092198D01*
Y1089659D01*
X2285402Y1087120D01*
X2280323D01*
X2277784Y1089659D01*
X2293019Y1102355D02*
X2303176D01*
Y1099816D01*
X2293019Y1089659D01*
Y1087120D01*
X2308254D02*
Y1097277D01*
X2310793D01*
X2313333Y1094737D01*
Y1087120D01*
Y1094737D01*
X2315872Y1097277D01*
X2318411Y1094737D01*
Y1087120D01*
X2323489D02*
X2328568D01*
X2326028D01*
Y1097277D01*
X2323489D01*
X2336185Y1087120D02*
X2341263D01*
X2338724D01*
Y1102355D01*
X2336185D01*
X2348881Y1087120D02*
X2353959Y1092198D01*
Y1097277D01*
X2348881Y1102355D01*
X3052262Y1087120D02*
Y1102355D01*
X3059879D01*
X3062419Y1099816D01*
Y1094737D01*
X3059879Y1092198D01*
X3052262D01*
X3067497Y1102355D02*
X3077654D01*
X3072575D01*
Y1087120D01*
X3082732Y1102355D02*
Y1087120D01*
Y1094737D01*
X3092889D01*
Y1102355D01*
Y1087120D01*
X3180247D02*
Y1102355D01*
X3187864D01*
X3190403Y1099816D01*
Y1094737D01*
X3187864Y1092198D01*
X3180247D01*
X3185325D02*
X3190403Y1087120D01*
X3198021D02*
X3203099D01*
X3205638Y1089659D01*
Y1094737D01*
X3203099Y1097277D01*
X3198021D01*
X3195482Y1094737D01*
Y1089659D01*
X3198021Y1087120D01*
X3210717Y1097277D02*
Y1089659D01*
X3213256Y1087120D01*
X3220873D01*
Y1097277D01*
X3225952Y1087120D02*
Y1097277D01*
X3233569D01*
X3236108Y1094737D01*
Y1087120D01*
X3251343Y1102355D02*
Y1087120D01*
X3243726D01*
X3241187Y1089659D01*
Y1094737D01*
X3243726Y1097277D01*
X3251343D01*
X1986784Y1059179D02*
X1989324Y1056640D01*
X1994402D01*
X1996941Y1059179D01*
Y1069336D01*
X1994402Y1071875D01*
X1989324D01*
X1986784Y1069336D01*
Y1066797D01*
X1989324Y1064258D01*
X1996941D01*
X2163521Y1056640D02*
X2168599D01*
X2166060D01*
Y1071875D01*
X2163521Y1069336D01*
X2176217Y1056640D02*
Y1059179D01*
X2178756D01*
Y1056640D01*
X2176217D01*
X2188913Y1069336D02*
X2191452Y1071875D01*
X2196530D01*
X2199070Y1069336D01*
Y1059179D01*
X2196530Y1056640D01*
X2191452D01*
X2188913Y1059179D01*
Y1069336D01*
X2204148Y1059179D02*
X2206687Y1056640D01*
X2211765D01*
X2214305Y1059179D01*
Y1069336D01*
X2211765Y1071875D01*
X2206687D01*
X2204148Y1069336D01*
Y1066797D01*
X2206687Y1064258D01*
X2214305D01*
X2219383Y1056640D02*
Y1066797D01*
X2221922D01*
X2224461Y1064258D01*
Y1056640D01*
Y1064258D01*
X2227000Y1066797D01*
X2229540Y1064258D01*
Y1056640D01*
X2234618D02*
Y1066797D01*
X2237157D01*
X2239696Y1064258D01*
Y1056640D01*
Y1064258D01*
X2242236Y1066797D01*
X2244775Y1064258D01*
Y1056640D01*
X2270167D02*
X2265088Y1061718D01*
Y1066797D01*
X2270167Y1071875D01*
X2285402Y1056640D02*
Y1071875D01*
X2277784Y1064258D01*
X2287941D01*
X2303176Y1056640D02*
X2293019D01*
X2303176Y1066797D01*
Y1069336D01*
X2300637Y1071875D01*
X2295558D01*
X2293019Y1069336D01*
X2308254Y1056640D02*
Y1059179D01*
X2310793D01*
Y1056640D01*
X2308254D01*
X2320950Y1059179D02*
X2323489Y1056640D01*
X2328568D01*
X2331107Y1059179D01*
Y1069336D01*
X2328568Y1071875D01*
X2323489D01*
X2320950Y1069336D01*
Y1066797D01*
X2323489Y1064258D01*
X2331107D01*
X2336185Y1056640D02*
X2341263D01*
X2338724D01*
Y1071875D01*
X2336185Y1069336D01*
X2348881D02*
X2351420Y1071875D01*
X2356499D01*
X2359038Y1069336D01*
Y1066797D01*
X2356499Y1064258D01*
X2353959D01*
X2356499D01*
X2359038Y1061718D01*
Y1059179D01*
X2356499Y1056640D01*
X2351420D01*
X2348881Y1059179D01*
X2364116Y1056640D02*
Y1066797D01*
X2366655D01*
X2369194Y1064258D01*
Y1056640D01*
Y1064258D01*
X2371734Y1066797D01*
X2374273Y1064258D01*
Y1056640D01*
X2379351D02*
X2384430D01*
X2381890D01*
Y1066797D01*
X2379351D01*
X2392047Y1056640D02*
X2397126D01*
X2394586D01*
Y1071875D01*
X2392047D01*
X2404743Y1056640D02*
X2409821Y1061718D01*
Y1066797D01*
X2404743Y1071875D01*
X3052262Y1056640D02*
Y1071875D01*
X3059879D01*
X3062419Y1069336D01*
Y1064258D01*
X3059879Y1061718D01*
X3052262D01*
X3067497Y1071875D02*
X3077654D01*
X3072575D01*
Y1056640D01*
X3082732Y1071875D02*
Y1056640D01*
Y1064258D01*
X3092889D01*
Y1071875D01*
Y1056640D01*
X3180247D02*
Y1071875D01*
X3187864D01*
X3190403Y1069336D01*
Y1064258D01*
X3187864Y1061718D01*
X3180247D01*
X3185325D02*
X3190403Y1056640D01*
X3198021D02*
X3203099D01*
X3205638Y1059179D01*
Y1064258D01*
X3203099Y1066797D01*
X3198021D01*
X3195482Y1064258D01*
Y1059179D01*
X3198021Y1056640D01*
X3210717Y1066797D02*
Y1059179D01*
X3213256Y1056640D01*
X3220873D01*
Y1066797D01*
X3225952Y1056640D02*
Y1066797D01*
X3233569D01*
X3236108Y1064258D01*
Y1056640D01*
X3251343Y1071875D02*
Y1056640D01*
X3243726D01*
X3241187Y1059179D01*
Y1064258D01*
X3243726Y1066797D01*
X3251343D01*
X1996941Y1041395D02*
X1986784D01*
Y1033777D01*
X1991863Y1036317D01*
X1994402D01*
X1996941Y1033777D01*
Y1028699D01*
X1994402Y1026160D01*
X1989324D01*
X1986784Y1028699D01*
X2163521Y1026160D02*
X2168599D01*
X2166060D01*
Y1041395D01*
X2163521Y1038856D01*
X2176217Y1026160D02*
Y1028699D01*
X2178756D01*
Y1026160D01*
X2176217D01*
X2199070D02*
X2188913D01*
X2199070Y1036317D01*
Y1038856D01*
X2196530Y1041395D01*
X2191452D01*
X2188913Y1038856D01*
X2204148Y1026160D02*
Y1036317D01*
X2206687D01*
X2209226Y1033777D01*
Y1026160D01*
Y1033777D01*
X2211765Y1036317D01*
X2214305Y1033777D01*
Y1026160D01*
X2219383D02*
Y1036317D01*
X2221922D01*
X2224461Y1033777D01*
Y1026160D01*
Y1033777D01*
X2227000Y1036317D01*
X2229540Y1033777D01*
Y1026160D01*
X2254931D02*
X2249853Y1031238D01*
Y1036317D01*
X2254931Y1041395D01*
X2270167Y1026160D02*
Y1041395D01*
X2262549Y1033777D01*
X2272706D01*
X2277784Y1041395D02*
X2287941D01*
Y1038856D01*
X2277784Y1028699D01*
Y1026160D01*
X2293019D02*
Y1028699D01*
X2295558D01*
Y1026160D01*
X2293019D01*
X2315872D02*
X2305715D01*
X2315872Y1036317D01*
Y1038856D01*
X2313333Y1041395D01*
X2308254D01*
X2305715Y1038856D01*
X2328568Y1026160D02*
Y1041395D01*
X2320950Y1033777D01*
X2331107D01*
X2343803Y1026160D02*
Y1041395D01*
X2336185Y1033777D01*
X2346342D01*
X2351420Y1026160D02*
Y1036317D01*
X2353960D01*
X2356499Y1033777D01*
Y1026160D01*
Y1033777D01*
X2359038Y1036317D01*
X2361577Y1033777D01*
Y1026160D01*
X2366655D02*
X2371734D01*
X2369194D01*
Y1036317D01*
X2366655D01*
X2379351Y1026160D02*
X2384430D01*
X2381890D01*
Y1041395D01*
X2379351D01*
X2392047Y1026160D02*
X2397126Y1031238D01*
Y1036317D01*
X2392047Y1041395D01*
X3052262Y1026160D02*
Y1041395D01*
X3059879D01*
X3062419Y1038856D01*
Y1033777D01*
X3059879Y1031238D01*
X3052262D01*
X3067497Y1041395D02*
X3077654D01*
X3072575D01*
Y1026160D01*
X3082732Y1041395D02*
Y1026160D01*
Y1033777D01*
X3092889D01*
Y1041395D01*
Y1026160D01*
X3180247D02*
Y1041395D01*
X3187864D01*
X3190403Y1038856D01*
Y1033777D01*
X3187864Y1031238D01*
X3180247D01*
X3185325D02*
X3190403Y1026160D01*
X3198021D02*
X3203099D01*
X3205638Y1028699D01*
Y1033777D01*
X3203099Y1036317D01*
X3198021D01*
X3195482Y1033777D01*
Y1028699D01*
X3198021Y1026160D01*
X3210717Y1036317D02*
Y1028699D01*
X3213256Y1026160D01*
X3220873D01*
Y1036317D01*
X3225952Y1026160D02*
Y1036317D01*
X3233569D01*
X3236108Y1033777D01*
Y1026160D01*
X3251343Y1041395D02*
Y1026160D01*
X3243726D01*
X3241187Y1028699D01*
Y1033777D01*
X3243726Y1036317D01*
X3251343D01*
X1996941Y995680D02*
X1986784D01*
X1996941Y1005837D01*
Y1008376D01*
X1994402Y1010915D01*
X1989324D01*
X1986784Y1008376D01*
X2163521D02*
X2166060Y1010915D01*
X2171139D01*
X2173678Y1008376D01*
Y1005837D01*
X2171139Y1003298D01*
X2168599D01*
X2171139D01*
X2173678Y1000758D01*
Y998219D01*
X2171139Y995680D01*
X2166060D01*
X2163521Y998219D01*
X2178756Y995680D02*
Y998219D01*
X2181295D01*
Y995680D01*
X2178756D01*
X2201609D02*
X2191452D01*
X2201609Y1005837D01*
Y1008376D01*
X2199070Y1010915D01*
X2193991D01*
X2191452Y1008376D01*
X2216844Y1010915D02*
X2211765Y1008376D01*
X2206687Y1003298D01*
Y998219D01*
X2209226Y995680D01*
X2214305D01*
X2216844Y998219D01*
Y1000758D01*
X2214305Y1003298D01*
X2206687D01*
X2221922Y995680D02*
Y1005837D01*
X2224461D01*
X2227000Y1003298D01*
Y995680D01*
Y1003298D01*
X2229540Y1005837D01*
X2232079Y1003298D01*
Y995680D01*
X2237157D02*
Y1005837D01*
X2239696D01*
X2242236Y1003298D01*
Y995680D01*
Y1003298D01*
X2244775Y1005837D01*
X2247314Y1003298D01*
Y995680D01*
X2272706D02*
X2267627Y1000758D01*
Y1005837D01*
X2272706Y1010915D01*
X2280323Y995680D02*
X2285402D01*
X2282863D01*
Y1010915D01*
X2280323Y1008376D01*
X2303176Y995680D02*
X2293019D01*
X2303176Y1005837D01*
Y1008376D01*
X2300637Y1010915D01*
X2295558D01*
X2293019Y1008376D01*
X2308254D02*
X2310793Y1010915D01*
X2315872D01*
X2318411Y1008376D01*
Y1005837D01*
X2315872Y1003298D01*
X2318411Y1000758D01*
Y998219D01*
X2315872Y995680D01*
X2310793D01*
X2308254Y998219D01*
Y1000758D01*
X2310793Y1003298D01*
X2308254Y1005837D01*
Y1008376D01*
X2310793Y1003298D02*
X2315872D01*
X2323489Y995680D02*
Y998219D01*
X2326028D01*
Y995680D01*
X2323489D01*
X2336185Y1008376D02*
X2338724Y1010915D01*
X2343803D01*
X2346342Y1008376D01*
Y1005837D01*
X2343803Y1003298D01*
X2341263D01*
X2343803D01*
X2346342Y1000758D01*
Y998219D01*
X2343803Y995680D01*
X2338724D01*
X2336185Y998219D01*
X2359038Y995680D02*
Y1010915D01*
X2351420Y1003298D01*
X2361577D01*
X2376812Y1010915D02*
X2371734Y1008376D01*
X2366655Y1003298D01*
Y998219D01*
X2369194Y995680D01*
X2374273D01*
X2376812Y998219D01*
Y1000758D01*
X2374273Y1003298D01*
X2366655D01*
X2381890Y995680D02*
Y1005837D01*
X2384430D01*
X2386969Y1003298D01*
Y995680D01*
Y1003298D01*
X2389508Y1005837D01*
X2392047Y1003298D01*
Y995680D01*
X2397126D02*
X2402204D01*
X2399665D01*
Y1005837D01*
X2397126D01*
X2409821Y995680D02*
X2414900D01*
X2412361D01*
Y1010915D01*
X2409821D01*
X2422517Y995680D02*
X2427596Y1000758D01*
Y1005837D01*
X2422517Y1010915D01*
X3052262Y995680D02*
Y1010915D01*
X3059879D01*
X3062419Y1008376D01*
Y1003298D01*
X3059879Y1000758D01*
X3052262D01*
X3067497Y1010915D02*
X3077654D01*
X3072575D01*
Y995680D01*
X3082732Y1010915D02*
Y995680D01*
Y1003298D01*
X3092889D01*
Y1010915D01*
Y995680D01*
X3180247D02*
Y1010915D01*
X3187864D01*
X3190403Y1008376D01*
Y1003298D01*
X3187864Y1000758D01*
X3180247D01*
X3185325D02*
X3190403Y995680D01*
X3198021D02*
X3203099D01*
X3205638Y998219D01*
Y1003298D01*
X3203099Y1005837D01*
X3198021D01*
X3195482Y1003298D01*
Y998219D01*
X3198021Y995680D01*
X3210717Y1005837D02*
Y998219D01*
X3213256Y995680D01*
X3220873D01*
Y1005837D01*
X3225952Y995680D02*
Y1005837D01*
X3233569D01*
X3236108Y1003298D01*
Y995680D01*
X3251343Y1010915D02*
Y995680D01*
X3243726D01*
X3241187Y998219D01*
Y1003298D01*
X3243726Y1005837D01*
X3251343D01*
X1986784Y965200D02*
X1991863D01*
X1989324D01*
Y980435D01*
X1986784Y977896D01*
X2007098Y965200D02*
Y980435D01*
X1999480Y972818D01*
X2009637D01*
X2163521Y977896D02*
X2166060Y980435D01*
X2171139D01*
X2173678Y977896D01*
Y967739D01*
X2171139Y965200D01*
X2166060D01*
X2163521Y967739D01*
Y977896D01*
X2178756Y965200D02*
Y967739D01*
X2181295D01*
Y965200D01*
X2178756D01*
X2201609Y980435D02*
X2196530Y977896D01*
X2191452Y972818D01*
Y967739D01*
X2193991Y965200D01*
X2199070D01*
X2201609Y967739D01*
Y970278D01*
X2199070Y972818D01*
X2191452D01*
X2216844Y980435D02*
X2206687D01*
Y972818D01*
X2211765Y975357D01*
X2214305D01*
X2216844Y972818D01*
Y967739D01*
X2214305Y965200D01*
X2209226D01*
X2206687Y967739D01*
X2221922Y965200D02*
Y975357D01*
X2224461D01*
X2227000Y972818D01*
Y965200D01*
Y972818D01*
X2229540Y975357D01*
X2232079Y972818D01*
Y965200D01*
X2237157D02*
Y975357D01*
X2239696D01*
X2242236Y972818D01*
Y965200D01*
Y972818D01*
X2244775Y975357D01*
X2247314Y972818D01*
Y965200D01*
X2272706D02*
X2267627Y970278D01*
Y975357D01*
X2272706Y980435D01*
X2290480Y965200D02*
X2280323D01*
X2290480Y975357D01*
Y977896D01*
X2287941Y980435D01*
X2282863D01*
X2280323Y977896D01*
X2305715Y980435D02*
X2295558D01*
Y972818D01*
X2300637Y975357D01*
X2303176D01*
X2305715Y972818D01*
Y967739D01*
X2303176Y965200D01*
X2298098D01*
X2295558Y967739D01*
X2310793Y965200D02*
Y967739D01*
X2313333D01*
Y965200D01*
X2310793D01*
X2333646Y980435D02*
X2323489D01*
Y972818D01*
X2328568Y975357D01*
X2331107D01*
X2333646Y972818D01*
Y967739D01*
X2331107Y965200D01*
X2326028D01*
X2323489Y967739D01*
X2338724D02*
X2341264Y965200D01*
X2346342D01*
X2348881Y967739D01*
Y977896D01*
X2346342Y980435D01*
X2341264D01*
X2338724Y977896D01*
Y975357D01*
X2341264Y972818D01*
X2348881D01*
X2353960Y965200D02*
X2359038D01*
X2356499D01*
Y980435D01*
X2353960Y977896D01*
X2366655Y965200D02*
Y975357D01*
X2369194D01*
X2371734Y972818D01*
Y965200D01*
Y972818D01*
X2374273Y975357D01*
X2376812Y972818D01*
Y965200D01*
X2381890D02*
X2386969D01*
X2384430D01*
Y975357D01*
X2381890D01*
X2394586Y965200D02*
X2399665D01*
X2397126D01*
Y980435D01*
X2394586D01*
X2407282Y965200D02*
X2412361Y970278D01*
Y975357D01*
X2407282Y980435D01*
X3052262Y965200D02*
Y980435D01*
X3059879D01*
X3062419Y977896D01*
Y972818D01*
X3059879Y970278D01*
X3052262D01*
X3067497Y980435D02*
X3077654D01*
X3072575D01*
Y965200D01*
X3082732Y980435D02*
Y965200D01*
Y972818D01*
X3092889D01*
Y980435D01*
Y965200D01*
X3190403Y977896D02*
X3187864Y980435D01*
X3182786D01*
X3180247Y977896D01*
Y975357D01*
X3182786Y972818D01*
X3187864D01*
X3190403Y970278D01*
Y967739D01*
X3187864Y965200D01*
X3182786D01*
X3180247Y967739D01*
X3205638Y960122D02*
Y975357D01*
X3198021D01*
X3195482Y972818D01*
Y967739D01*
X3198021Y965200D01*
X3205638D01*
X3210717Y975357D02*
Y967739D01*
X3213256Y965200D01*
X3220873D01*
Y975357D01*
X3228491D02*
X3233569D01*
X3236108Y972818D01*
Y965200D01*
X3228491D01*
X3225952Y967739D01*
X3228491Y970278D01*
X3236108D01*
X3241187Y975357D02*
Y965200D01*
Y970278D01*
X3243726Y972818D01*
X3246265Y975357D01*
X3248804D01*
X3264039Y965200D02*
X3258961D01*
X3256422Y967739D01*
Y972818D01*
X3258961Y975357D01*
X3264039D01*
X3266579Y972818D01*
Y970278D01*
X3256422D01*
X1996941Y949955D02*
X1991863Y947416D01*
X1986784Y942337D01*
Y937259D01*
X1989324Y934720D01*
X1994402D01*
X1996941Y937259D01*
Y939798D01*
X1994402Y942337D01*
X1986784D01*
X2163521Y947416D02*
X2166060Y949955D01*
X2171139D01*
X2173678Y947416D01*
Y937259D01*
X2171139Y934720D01*
X2166060D01*
X2163521Y937259D01*
Y947416D01*
X2178756Y934720D02*
Y937259D01*
X2181295D01*
Y934720D01*
X2178756D01*
X2191452Y949955D02*
X2201609D01*
Y947416D01*
X2191452Y937259D01*
Y934720D01*
X2206687D02*
Y944877D01*
X2209226D01*
X2211765Y942337D01*
Y934720D01*
Y942337D01*
X2214305Y944877D01*
X2216844Y942337D01*
Y934720D01*
X2221922D02*
Y944877D01*
X2224461D01*
X2227000Y942337D01*
Y934720D01*
Y942337D01*
X2229540Y944877D01*
X2232079Y942337D01*
Y934720D01*
X2257471D02*
X2252392Y939798D01*
Y944877D01*
X2257471Y949955D01*
X2275245Y934720D02*
X2265088D01*
X2275245Y944877D01*
Y947416D01*
X2272706Y949955D01*
X2267627D01*
X2265088Y947416D01*
X2280323Y949955D02*
X2290480D01*
Y947416D01*
X2280323Y937259D01*
Y934720D01*
X2295558D02*
Y937259D01*
X2298098D01*
Y934720D01*
X2295558D01*
X2318411Y949955D02*
X2308254D01*
Y942337D01*
X2313333Y944877D01*
X2315872D01*
X2318411Y942337D01*
Y937259D01*
X2315872Y934720D01*
X2310793D01*
X2308254Y937259D01*
X2333646Y949955D02*
X2323489D01*
Y942337D01*
X2328568Y944877D01*
X2331107D01*
X2333646Y942337D01*
Y937259D01*
X2331107Y934720D01*
X2326028D01*
X2323489Y937259D01*
X2338724D02*
X2341264Y934720D01*
X2346342D01*
X2348881Y937259D01*
Y947416D01*
X2346342Y949955D01*
X2341264D01*
X2338724Y947416D01*
Y944877D01*
X2341264Y942337D01*
X2348881D01*
X2353960Y934720D02*
Y944877D01*
X2356499D01*
X2359038Y942337D01*
Y934720D01*
Y942337D01*
X2361577Y944877D01*
X2364116Y942337D01*
Y934720D01*
X2369194D02*
X2374273D01*
X2371734D01*
Y944877D01*
X2369194D01*
X2381890Y934720D02*
X2386969D01*
X2384430D01*
Y949955D01*
X2381890D01*
X2394586Y934720D02*
X2399665Y939798D01*
Y944877D01*
X2394586Y949955D01*
X3052262Y934720D02*
Y949955D01*
X3059879D01*
X3062419Y947416D01*
Y942337D01*
X3059879Y939798D01*
X3052262D01*
X3067497Y949955D02*
X3077654D01*
X3072575D01*
Y934720D01*
X3082732Y949955D02*
Y934720D01*
Y942337D01*
X3092889D01*
Y949955D01*
Y934720D01*
X3190403Y947416D02*
X3187864Y949955D01*
X3182786D01*
X3180247Y947416D01*
Y944877D01*
X3182786Y942337D01*
X3187864D01*
X3190403Y939798D01*
Y937259D01*
X3187864Y934720D01*
X3182786D01*
X3180247Y937259D01*
X3205638Y929642D02*
Y944877D01*
X3198021D01*
X3195482Y942337D01*
Y937259D01*
X3198021Y934720D01*
X3205638D01*
X3210717Y944877D02*
Y937259D01*
X3213256Y934720D01*
X3220873D01*
Y944877D01*
X3228491D02*
X3233569D01*
X3236108Y942337D01*
Y934720D01*
X3228491D01*
X3225952Y937259D01*
X3228491Y939798D01*
X3236108D01*
X3241187Y944877D02*
Y934720D01*
Y939798D01*
X3243726Y942337D01*
X3246265Y944877D01*
X3248804D01*
X3264039Y934720D02*
X3258961D01*
X3256422Y937259D01*
Y942337D01*
X3258961Y944877D01*
X3264039D01*
X3266579Y942337D01*
Y939798D01*
X3256422D01*
X1986784Y919475D02*
X1996941D01*
Y916936D01*
X1986784Y906779D01*
Y904240D01*
X2163521Y916936D02*
X2166060Y919475D01*
X2171139D01*
X2173678Y916936D01*
Y906779D01*
X2171139Y904240D01*
X2166060D01*
X2163521Y906779D01*
Y916936D01*
X2178756Y904240D02*
Y906779D01*
X2181295D01*
Y904240D01*
X2178756D01*
X2201609Y919475D02*
X2196530Y916936D01*
X2191452Y911858D01*
Y906779D01*
X2193991Y904240D01*
X2199070D01*
X2201609Y906779D01*
Y909318D01*
X2199070Y911858D01*
X2191452D01*
X2216844Y919475D02*
X2206687D01*
Y911858D01*
X2211765Y914397D01*
X2214305D01*
X2216844Y911858D01*
Y906779D01*
X2214305Y904240D01*
X2209226D01*
X2206687Y906779D01*
X2221922Y904240D02*
Y914397D01*
X2224461D01*
X2227000Y911858D01*
Y904240D01*
Y911858D01*
X2229540Y914397D01*
X2232079Y911858D01*
Y904240D01*
X2237157D02*
Y914397D01*
X2239696D01*
X2242236Y911858D01*
Y904240D01*
Y911858D01*
X2244775Y914397D01*
X2247314Y911858D01*
Y904240D01*
X2272706D02*
X2267627Y909318D01*
Y914397D01*
X2272706Y919475D01*
X2290480Y904240D02*
X2280323D01*
X2290480Y914397D01*
Y916936D01*
X2287941Y919475D01*
X2282863D01*
X2280323Y916936D01*
X2305715Y919475D02*
X2295558D01*
Y911858D01*
X2300637Y914397D01*
X2303176D01*
X2305715Y911858D01*
Y906779D01*
X2303176Y904240D01*
X2298098D01*
X2295558Y906779D01*
X2310793Y904240D02*
Y906779D01*
X2313333D01*
Y904240D01*
X2310793D01*
X2333646Y919475D02*
X2323489D01*
Y911858D01*
X2328568Y914397D01*
X2331107D01*
X2333646Y911858D01*
Y906779D01*
X2331107Y904240D01*
X2326028D01*
X2323489Y906779D01*
X2338724D02*
X2341264Y904240D01*
X2346342D01*
X2348881Y906779D01*
Y916936D01*
X2346342Y919475D01*
X2341264D01*
X2338724Y916936D01*
Y914397D01*
X2341264Y911858D01*
X2348881D01*
X2353960Y904240D02*
X2359038D01*
X2356499D01*
Y919475D01*
X2353960Y916936D01*
X2366655Y904240D02*
Y914397D01*
X2369194D01*
X2371734Y911858D01*
Y904240D01*
Y911858D01*
X2374273Y914397D01*
X2376812Y911858D01*
Y904240D01*
X2381890D02*
X2386969D01*
X2384430D01*
Y914397D01*
X2381890D01*
X2394586Y904240D02*
X2399665D01*
X2397126D01*
Y919475D01*
X2394586D01*
X2407282Y904240D02*
X2412361Y909318D01*
Y914397D01*
X2407282Y919475D01*
X2455028Y904240D02*
X2460106D01*
X2457567D01*
Y919475D01*
X2455028Y916936D01*
X2467724Y904240D02*
Y906779D01*
X2470263D01*
Y904240D01*
X2467724D01*
X2490576Y919475D02*
X2480419D01*
Y911858D01*
X2485498Y914397D01*
X2488037D01*
X2490576Y911858D01*
Y906779D01*
X2488037Y904240D01*
X2482959D01*
X2480419Y906779D01*
X2495654Y904240D02*
Y914397D01*
X2498194D01*
X2500733Y911858D01*
Y904240D01*
Y911858D01*
X2503272Y914397D01*
X2505811Y911858D01*
Y904240D01*
X2510889D02*
Y914397D01*
X2513429D01*
X2515968Y911858D01*
Y904240D01*
Y911858D01*
X2518507Y914397D01*
X2521046Y911858D01*
Y904240D01*
X2546438D02*
X2541360Y909318D01*
Y914397D01*
X2546438Y919475D01*
X2564212D02*
X2554055D01*
Y911858D01*
X2559134Y914397D01*
X2561673D01*
X2564212Y911858D01*
Y906779D01*
X2561673Y904240D01*
X2556595D01*
X2554055Y906779D01*
X2569290D02*
X2571830Y904240D01*
X2576908D01*
X2579447Y906779D01*
Y916936D01*
X2576908Y919475D01*
X2571830D01*
X2569290Y916936D01*
Y914397D01*
X2571830Y911858D01*
X2579447D01*
X2584526Y904240D02*
Y906779D01*
X2587065D01*
Y904240D01*
X2584526D01*
X2597222Y916936D02*
X2599761Y919475D01*
X2604839D01*
X2607378Y916936D01*
Y906779D01*
X2604839Y904240D01*
X2599761D01*
X2597222Y906779D01*
Y916936D01*
X2622614Y919475D02*
X2612457D01*
Y911858D01*
X2617535Y914397D01*
X2620074D01*
X2622614Y911858D01*
Y906779D01*
X2620074Y904240D01*
X2614996D01*
X2612457Y906779D01*
X2637849Y919475D02*
X2627692D01*
Y911858D01*
X2632770Y914397D01*
X2635309D01*
X2637849Y911858D01*
Y906779D01*
X2635309Y904240D01*
X2630231D01*
X2627692Y906779D01*
X2642927Y904240D02*
Y914397D01*
X2645466D01*
X2648005Y911858D01*
Y904240D01*
Y911858D01*
X2650544Y914397D01*
X2653083Y911858D01*
Y904240D01*
X2658162D02*
X2663240D01*
X2660701D01*
Y914397D01*
X2658162D01*
X2670858Y904240D02*
X2675936D01*
X2673397D01*
Y919475D01*
X2670858D01*
X2683553Y904240D02*
X2688632Y909318D01*
Y914397D01*
X2683553Y919475D01*
X2744504Y916936D02*
X2747043Y919475D01*
X2752121D01*
X2754661Y916936D01*
Y906779D01*
X2752121Y904240D01*
X2747043D01*
X2744504Y906779D01*
Y916936D01*
X2759739Y904240D02*
Y906779D01*
X2762278D01*
Y904240D01*
X2759739D01*
X2772435Y916936D02*
X2774974Y919475D01*
X2780052D01*
X2782592Y916936D01*
Y914397D01*
X2780052Y911858D01*
X2782592Y909318D01*
Y906779D01*
X2780052Y904240D01*
X2774974D01*
X2772435Y906779D01*
Y909318D01*
X2774974Y911858D01*
X2772435Y914397D01*
Y916936D01*
X2774974Y911858D02*
X2780052D01*
X2797827Y919475D02*
X2787670D01*
Y911858D01*
X2792748Y914397D01*
X2795287D01*
X2797827Y911858D01*
Y906779D01*
X2795287Y904240D01*
X2790209D01*
X2787670Y906779D01*
X2802905Y904240D02*
Y914397D01*
X2805444D01*
X2807983Y911858D01*
Y904240D01*
Y911858D01*
X2810522Y914397D01*
X2813062Y911858D01*
Y904240D01*
X2818140D02*
Y914397D01*
X2820679D01*
X2823218Y911858D01*
Y904240D01*
Y911858D01*
X2825757Y914397D01*
X2828297Y911858D01*
Y904240D01*
X2853688D02*
X2848610Y909318D01*
Y914397D01*
X2853688Y919475D01*
X2861306Y916936D02*
X2863845Y919475D01*
X2868924D01*
X2871463Y916936D01*
Y914397D01*
X2868924Y911858D01*
X2866384D01*
X2868924D01*
X2871463Y909318D01*
Y906779D01*
X2868924Y904240D01*
X2863845D01*
X2861306Y906779D01*
X2876541Y916936D02*
X2879080Y919475D01*
X2884159D01*
X2886698Y916936D01*
Y914397D01*
X2884159Y911858D01*
X2881619D01*
X2884159D01*
X2886698Y909318D01*
Y906779D01*
X2884159Y904240D01*
X2879080D01*
X2876541Y906779D01*
X2891776Y904240D02*
Y906779D01*
X2894315D01*
Y904240D01*
X2891776D01*
X2912090D02*
Y919475D01*
X2904472Y911858D01*
X2914629D01*
X2929864Y919475D02*
X2924785Y916936D01*
X2919707Y911858D01*
Y906779D01*
X2922246Y904240D01*
X2927325D01*
X2929864Y906779D01*
Y909318D01*
X2927325Y911858D01*
X2919707D01*
X2945099Y919475D02*
X2934942D01*
Y911858D01*
X2940020Y914397D01*
X2942560D01*
X2945099Y911858D01*
Y906779D01*
X2942560Y904240D01*
X2937481D01*
X2934942Y906779D01*
X2950177Y904240D02*
Y914397D01*
X2952716D01*
X2955256Y911858D01*
Y904240D01*
Y911858D01*
X2957795Y914397D01*
X2960334Y911858D01*
Y904240D01*
X2965412D02*
X2970491D01*
X2967951D01*
Y914397D01*
X2965412D01*
X2978108Y904240D02*
X2983187D01*
X2980647D01*
Y919475D01*
X2978108D01*
X2990804Y904240D02*
X2995882Y909318D01*
Y914397D01*
X2990804Y919475D01*
X3052262Y904240D02*
Y919475D01*
X3059879D01*
X3062419Y916936D01*
Y911858D01*
X3059879Y909318D01*
X3052262D01*
X3067497Y919475D02*
X3077654D01*
X3072575D01*
Y904240D01*
X3082732Y919475D02*
Y904240D01*
Y911858D01*
X3092889D01*
Y919475D01*
Y904240D01*
X3190403Y916936D02*
X3187864Y919475D01*
X3182786D01*
X3180247Y916936D01*
Y914397D01*
X3182786Y911858D01*
X3187864D01*
X3190403Y909318D01*
Y906779D01*
X3187864Y904240D01*
X3182786D01*
X3180247Y906779D01*
X3195482Y904240D02*
X3200560D01*
X3198021D01*
Y919475D01*
X3195482D01*
X3210717Y904240D02*
X3215795D01*
X3218334Y906779D01*
Y911858D01*
X3215795Y914397D01*
X3210717D01*
X3208177Y911858D01*
Y906779D01*
X3210717Y904240D01*
X3225952Y916936D02*
Y914397D01*
X3223412D01*
X3228491D01*
X3225952D01*
Y906779D01*
X3228491Y904240D01*
X1986784Y873760D02*
X1991863D01*
X1989324D01*
Y888995D01*
X1986784Y886456D01*
X1999480D02*
X2002020Y888995D01*
X2007098D01*
X2009637Y886456D01*
Y876299D01*
X2007098Y873760D01*
X2002020D01*
X1999480Y876299D01*
Y886456D01*
X2014715D02*
X2017255Y888995D01*
X2022333D01*
X2024872Y886456D01*
Y876299D01*
X2022333Y873760D01*
X2017255D01*
X2014715Y876299D01*
Y886456D01*
X2052304Y888995D02*
X2062461D01*
X2057382D01*
Y873760D01*
X2070078D02*
X2075157D01*
X2077696Y876299D01*
Y881377D01*
X2075157Y883917D01*
X2070078D01*
X2067539Y881377D01*
Y876299D01*
X2070078Y873760D01*
X2085313Y886456D02*
Y883917D01*
X2082774D01*
X2087853D01*
X2085313D01*
Y876299D01*
X2087853Y873760D01*
X2098009Y883917D02*
X2103088D01*
X2105627Y881377D01*
Y873760D01*
X2098009D01*
X2095470Y876299D01*
X2098009Y878838D01*
X2105627D01*
X2110705Y873760D02*
X2115784D01*
X2113244D01*
Y888995D01*
X2110705D01*
X2385437Y848358D02*
X2395594D01*
X2385437Y853437D02*
X2395594D01*
X2426064Y855976D02*
X2423525Y858515D01*
X2418447D01*
X2415908Y855976D01*
Y845819D01*
X2418447Y843280D01*
X2423525D01*
X2426064Y845819D01*
X2433682Y853437D02*
X2438760D01*
X2441299Y850898D01*
Y843280D01*
X2433682D01*
X2431143Y845819D01*
X2433682Y848358D01*
X2441299D01*
X2446378Y843280D02*
X2451456D01*
X2448917D01*
Y858515D01*
X2446378D01*
X2469230Y853437D02*
X2461613D01*
X2459074Y850898D01*
Y845819D01*
X2461613Y843280D01*
X2469230D01*
X2474309Y853437D02*
Y845819D01*
X2476848Y843280D01*
X2484465D01*
Y853437D01*
X2489544Y843280D02*
X2494622D01*
X2492083D01*
Y858515D01*
X2489544D01*
X2504779Y853437D02*
X2509857D01*
X2512396Y850898D01*
Y843280D01*
X2504779D01*
X2502240Y845819D01*
X2504779Y848358D01*
X2512396D01*
X2520014Y855976D02*
Y853437D01*
X2517475D01*
X2522553D01*
X2520014D01*
Y845819D01*
X2522553Y843280D01*
X2537788D02*
X2532710D01*
X2530171Y845819D01*
Y850898D01*
X2532710Y853437D01*
X2537788D01*
X2540327Y850898D01*
Y848358D01*
X2530171D01*
X2555562Y858515D02*
Y843280D01*
X2547945D01*
X2545406Y845819D01*
Y850898D01*
X2547945Y853437D01*
X2555562D01*
X2578415Y843280D02*
Y855976D01*
Y850898D01*
X2575876D01*
X2580954D01*
X2578415D01*
Y855976D01*
X2580954Y858515D01*
X2588572Y853437D02*
Y843280D01*
Y848358D01*
X2591111Y850898D01*
X2593650Y853437D01*
X2596189D01*
X2606346Y843280D02*
X2611424D01*
X2613964Y845819D01*
Y850898D01*
X2611424Y853437D01*
X2606346D01*
X2603807Y850898D01*
Y845819D01*
X2606346Y843280D01*
X2619042D02*
Y853437D01*
X2621581D01*
X2624120Y850898D01*
Y843280D01*
Y850898D01*
X2626660Y853437D01*
X2629199Y850898D01*
Y843280D01*
X2652051Y855976D02*
Y853437D01*
X2649512D01*
X2654590D01*
X2652051D01*
Y845819D01*
X2654590Y843280D01*
X2664747D02*
X2669825D01*
X2672365Y845819D01*
Y850898D01*
X2669825Y853437D01*
X2664747D01*
X2662208Y850898D01*
Y845819D01*
X2664747Y843280D01*
X2679982D02*
X2685060D01*
X2687600Y845819D01*
Y850898D01*
X2685060Y853437D01*
X2679982D01*
X2677443Y850898D01*
Y845819D01*
X2679982Y843280D01*
X2692678D02*
X2697756D01*
X2695217D01*
Y858515D01*
X2692678D01*
X2720609Y843280D02*
X2728227D01*
X2730766Y845819D01*
X2728227Y848358D01*
X2723148D01*
X2720609Y850898D01*
X2723148Y853437D01*
X2730766D01*
X2738383Y855976D02*
Y853437D01*
X2735844D01*
X2740923D01*
X2738383D01*
Y845819D01*
X2740923Y843280D01*
X2751079Y853437D02*
X2756158D01*
X2758697Y850898D01*
Y843280D01*
X2751079D01*
X2748540Y845819D01*
X2751079Y848358D01*
X2758697D01*
X2763775Y853437D02*
Y843280D01*
Y848358D01*
X2766314Y850898D01*
X2768853Y853437D01*
X2771393D01*
X2781549Y855976D02*
Y853437D01*
X2779010D01*
X2784088D01*
X2781549D01*
Y845819D01*
X2784088Y843280D01*
X2817098Y853437D02*
X2809480D01*
X2806941Y850898D01*
Y845819D01*
X2809480Y843280D01*
X2817098D01*
X2829794D02*
X2824715D01*
X2822176Y845819D01*
Y850898D01*
X2824715Y853437D01*
X2829794D01*
X2832333Y850898D01*
Y848358D01*
X2822176D01*
X2837411Y843280D02*
Y853437D01*
X2845029D01*
X2847568Y850898D01*
Y843280D01*
X2855186Y855976D02*
Y853437D01*
X2852646D01*
X2857725D01*
X2855186D01*
Y845819D01*
X2857725Y843280D01*
X2865342Y853437D02*
Y843280D01*
Y848358D01*
X2867881Y850898D01*
X2870421Y853437D01*
X2872960D01*
X2888195Y843280D02*
X2883116D01*
X2880577Y845819D01*
Y850898D01*
X2883116Y853437D01*
X2888195D01*
X2890734Y850898D01*
Y848358D01*
X2880577D01*
X2911047Y838202D02*
Y853437D01*
X2918665D01*
X2921204Y850898D01*
Y845819D01*
X2918665Y843280D01*
X2911047D01*
X2928822D02*
X2933900D01*
X2936439Y845819D01*
Y850898D01*
X2933900Y853437D01*
X2928822D01*
X2926282Y850898D01*
Y845819D01*
X2928822Y843280D01*
X2941518D02*
X2949135D01*
X2951674Y845819D01*
X2949135Y848358D01*
X2944057D01*
X2941518Y850898D01*
X2944057Y853437D01*
X2951674D01*
X2956753Y843280D02*
X2961831D01*
X2959292D01*
Y853437D01*
X2956753D01*
X2971988Y855976D02*
Y853437D01*
X2969449D01*
X2974527D01*
X2971988D01*
Y845819D01*
X2974527Y843280D01*
X2982144D02*
X2987223D01*
X2984684D01*
Y853437D01*
X2982144D01*
X2997379Y843280D02*
X3002458D01*
X3004997Y845819D01*
Y850898D01*
X3002458Y853437D01*
X2997379D01*
X2994840Y850898D01*
Y845819D01*
X2997379Y843280D01*
X3010075D02*
Y853437D01*
X3017693D01*
X3020232Y850898D01*
Y843280D01*
X3043085Y855976D02*
Y853437D01*
X3040545D01*
X3045624D01*
X3043085D01*
Y845819D01*
X3045624Y843280D01*
X3055781D02*
X3060859D01*
X3063398Y845819D01*
Y850898D01*
X3060859Y853437D01*
X3055781D01*
X3053241Y850898D01*
Y845819D01*
X3055781Y843280D01*
X3086251Y855976D02*
Y853437D01*
X3083712D01*
X3088790D01*
X3086251D01*
Y845819D01*
X3088790Y843280D01*
X3098947D02*
X3104025D01*
X3106564Y845819D01*
Y850898D01*
X3104025Y853437D01*
X3098947D01*
X3096407Y850898D01*
Y845819D01*
X3098947Y843280D01*
X3114182D02*
X3119260D01*
X3121799Y845819D01*
Y850898D01*
X3119260Y853437D01*
X3114182D01*
X3111642Y850898D01*
Y845819D01*
X3114182Y843280D01*
X3126877D02*
X3131956D01*
X3129417D01*
Y858515D01*
X3126877D01*
X3162426Y843280D02*
X3157348D01*
X3154808Y845819D01*
Y850898D01*
X3157348Y853437D01*
X3162426D01*
X3164965Y850898D01*
Y848358D01*
X3154808D01*
X3170044Y843280D02*
Y853437D01*
X3177661D01*
X3180200Y850898D01*
Y843280D01*
X3195435Y858515D02*
Y843280D01*
X3187818D01*
X3185279Y845819D01*
Y850898D01*
X3187818Y853437D01*
X3195435D01*
X3225905D02*
X3218288D01*
X3215749Y850898D01*
Y845819D01*
X3218288Y843280D01*
X3225905D01*
X3238601D02*
X3233523D01*
X3230984Y845819D01*
Y850898D01*
X3233523Y853437D01*
X3238601D01*
X3241140Y850898D01*
Y848358D01*
X3230984D01*
X3246219Y843280D02*
Y853437D01*
X3253836D01*
X3256376Y850898D01*
Y843280D01*
X3263993Y855976D02*
Y853437D01*
X3261454D01*
X3266532D01*
X3263993D01*
Y845819D01*
X3266532Y843280D01*
X3274150Y853437D02*
Y843280D01*
Y848358D01*
X3276689Y850898D01*
X3279228Y853437D01*
X3281767D01*
X3297002Y843280D02*
X3291924D01*
X3289385Y845819D01*
Y850898D01*
X3291924Y853437D01*
X3297002D01*
X3299542Y850898D01*
Y848358D01*
X3289385D01*
X3319855Y838202D02*
Y853437D01*
X3327473D01*
X3330012Y850898D01*
Y845819D01*
X3327473Y843280D01*
X3319855D01*
X3337629D02*
X3342708D01*
X3345247Y845819D01*
Y850898D01*
X3342708Y853437D01*
X3337629D01*
X3335090Y850898D01*
Y845819D01*
X3337629Y843280D01*
X3350325D02*
X3357943D01*
X3360482Y845819D01*
X3357943Y848358D01*
X3352864D01*
X3350325Y850898D01*
X3352864Y853437D01*
X3360482D01*
X3365560Y843280D02*
X3370639D01*
X3368099D01*
Y853437D01*
X3365560D01*
X3380795Y855976D02*
Y853437D01*
X3378256D01*
X3383334D01*
X3380795D01*
Y845819D01*
X3383334Y843280D01*
X3390952D02*
X3396030D01*
X3393491D01*
Y853437D01*
X3390952D01*
X3406187Y843280D02*
X3411266D01*
X3413805Y845819D01*
Y850898D01*
X3411266Y853437D01*
X3406187D01*
X3403648Y850898D01*
Y845819D01*
X3406187Y843280D01*
X3418883D02*
Y853437D01*
X3426501D01*
X3429040Y850898D01*
Y843280D01*
X3434118D02*
Y845819D01*
X3436657D01*
Y843280D01*
X3434118D01*
X2385437Y817878D02*
X2395594D01*
X2385437Y822957D02*
X2395594D01*
X2415908Y812800D02*
Y828035D01*
X2423525D01*
X2426064Y825496D01*
Y820417D01*
X2423525Y817878D01*
X2415908D01*
X2420986D02*
X2426064Y812800D01*
X2433682D02*
X2438760D01*
X2441299Y815339D01*
Y820417D01*
X2438760Y822957D01*
X2433682D01*
X2431143Y820417D01*
Y815339D01*
X2433682Y812800D01*
X2446378Y822957D02*
Y815339D01*
X2448917Y812800D01*
X2456534D01*
Y822957D01*
X2464152Y825496D02*
Y822957D01*
X2461613D01*
X2466691D01*
X2464152D01*
Y815339D01*
X2466691Y812800D01*
X2489544D02*
Y828035D01*
X2497161D01*
X2499700Y825496D01*
Y820417D01*
X2497161Y817878D01*
X2489544D01*
X2507318Y822957D02*
X2512396D01*
X2514935Y820417D01*
Y812800D01*
X2507318D01*
X2504779Y815339D01*
X2507318Y817878D01*
X2514935D01*
X2522553Y825496D02*
Y822957D01*
X2520014D01*
X2525092D01*
X2522553D01*
Y815339D01*
X2525092Y812800D01*
X2532710Y828035D02*
Y812800D01*
Y820417D01*
X2535249Y822957D01*
X2540327D01*
X2542867Y820417D01*
Y812800D01*
X2563180Y828035D02*
Y812800D01*
X2573336D01*
X2586032D02*
X2580954D01*
X2578415Y815339D01*
Y820417D01*
X2580954Y822957D01*
X2586032D01*
X2588572Y820417D01*
Y817878D01*
X2578415D01*
X2593650Y812800D02*
Y822957D01*
X2601268D01*
X2603807Y820417D01*
Y812800D01*
X2613964Y807722D02*
X2616503D01*
X2619042Y810261D01*
Y822957D01*
X2611424D01*
X2608885Y820417D01*
Y815339D01*
X2611424Y812800D01*
X2619042D01*
X2626660Y825496D02*
Y822957D01*
X2624120D01*
X2629199D01*
X2626660D01*
Y815339D01*
X2629199Y812800D01*
X2636816Y828035D02*
Y812800D01*
Y820417D01*
X2639355Y822957D01*
X2644434D01*
X2646973Y820417D01*
Y812800D01*
X2667286Y820417D02*
X2677443D01*
X2672365Y825496D02*
Y815339D01*
X2697756Y828035D02*
X2707913D01*
X2702835D01*
Y812800D01*
X2715531D02*
X2720609D01*
X2723148Y815339D01*
Y820417D01*
X2720609Y822957D01*
X2715531D01*
X2712991Y820417D01*
Y815339D01*
X2715531Y812800D01*
X2730766D02*
X2735844D01*
X2738383Y815339D01*
Y820417D01*
X2735844Y822957D01*
X2730766D01*
X2728227Y820417D01*
Y815339D01*
X2730766Y812800D01*
X2743462D02*
X2748540D01*
X2746001D01*
Y828035D01*
X2743462D01*
X2781549Y825496D02*
X2779010Y828035D01*
X2773932D01*
X2771393Y825496D01*
Y822957D01*
X2773932Y820417D01*
X2779010D01*
X2781549Y817878D01*
Y815339D01*
X2779010Y812800D01*
X2773932D01*
X2771393Y815339D01*
X2786628Y812800D02*
X2791706D01*
X2789167D01*
Y822957D01*
X2786628D01*
X2799323D02*
X2809480D01*
X2799323Y812800D01*
X2809480D01*
X2822176D02*
X2817098D01*
X2814559Y815339D01*
Y820417D01*
X2817098Y822957D01*
X2822176D01*
X2824715Y820417D01*
Y817878D01*
X2814559D01*
X2845029D02*
X2855186D01*
X2845029Y822957D02*
X2855186D01*
X2885656Y825496D02*
X2883116Y828035D01*
X2878038D01*
X2875499Y825496D01*
Y822957D01*
X2878038Y820417D01*
X2883116D01*
X2885656Y817878D01*
Y815339D01*
X2883116Y812800D01*
X2878038D01*
X2875499Y815339D01*
X2890734Y812800D02*
X2895812D01*
X2893273D01*
Y828035D01*
X2890734D01*
X2905969Y812800D02*
X2911047D01*
X2913587Y815339D01*
Y820417D01*
X2911047Y822957D01*
X2905969D01*
X2903430Y820417D01*
Y815339D01*
X2905969Y812800D01*
X2921204Y825496D02*
Y822957D01*
X2918665D01*
X2923743D01*
X2921204D01*
Y815339D01*
X2923743Y812800D01*
X2946596D02*
X2951674D01*
X2949135D01*
Y828035D01*
X2946596D01*
X2966909Y812800D02*
X2961831D01*
X2959292Y815339D01*
Y820417D01*
X2961831Y822957D01*
X2966909D01*
X2969449Y820417D01*
Y817878D01*
X2959292D01*
X2974527Y812800D02*
Y822957D01*
X2982144D01*
X2984684Y820417D01*
Y812800D01*
X2994840Y807722D02*
X2997379D01*
X2999919Y810261D01*
Y822957D01*
X2992301D01*
X2989762Y820417D01*
Y815339D01*
X2992301Y812800D01*
X2999919D01*
X3007536Y825496D02*
Y822957D01*
X3004997D01*
X3010075D01*
X3007536D01*
Y815339D01*
X3010075Y812800D01*
X3017693Y828035D02*
Y812800D01*
Y820417D01*
X3020232Y822957D01*
X3025310D01*
X3027850Y820417D01*
Y812800D01*
X3050702Y822957D02*
X3055781D01*
X3058320Y820417D01*
Y812800D01*
X3050702D01*
X3048163Y815339D01*
X3050702Y817878D01*
X3058320D01*
X3063398Y812800D02*
X3071016D01*
X3073555Y815339D01*
X3071016Y817878D01*
X3065937D01*
X3063398Y820417D01*
X3065937Y822957D01*
X3073555D01*
X3104025Y828035D02*
Y812800D01*
X3096407D01*
X3093868Y815339D01*
Y820417D01*
X3096407Y822957D01*
X3104025D01*
X3116721Y812800D02*
X3111642D01*
X3109103Y815339D01*
Y820417D01*
X3111642Y822957D01*
X3116721D01*
X3119260Y820417D01*
Y817878D01*
X3109103D01*
X3126877Y812800D02*
Y825496D01*
Y820417D01*
X3124338D01*
X3129417D01*
X3126877D01*
Y825496D01*
X3129417Y828035D01*
X3137034Y812800D02*
X3142113D01*
X3139573D01*
Y822957D01*
X3137034D01*
X3149730Y812800D02*
Y822957D01*
X3157348D01*
X3159887Y820417D01*
Y812800D01*
X3172583D02*
X3167504D01*
X3164965Y815339D01*
Y820417D01*
X3167504Y822957D01*
X3172583D01*
X3175122Y820417D01*
Y817878D01*
X3164965D01*
X3190357Y828035D02*
Y812800D01*
X3182740D01*
X3180200Y815339D01*
Y820417D01*
X3182740Y822957D01*
X3190357D01*
X3210670Y812800D02*
X3215749D01*
X3213210D01*
Y822957D01*
X3210670D01*
X3223366Y812800D02*
Y822957D01*
X3230984D01*
X3233523Y820417D01*
Y812800D01*
X3256376Y825496D02*
Y822957D01*
X3253836D01*
X3258915D01*
X3256376D01*
Y815339D01*
X3258915Y812800D01*
X3266532Y828035D02*
Y812800D01*
Y820417D01*
X3269071Y822957D01*
X3274150D01*
X3276689Y820417D01*
Y812800D01*
X3289385D02*
X3284307D01*
X3281767Y815339D01*
Y820417D01*
X3284307Y822957D01*
X3289385D01*
X3291924Y820417D01*
Y817878D01*
X3281767D01*
X3312238Y812800D02*
Y828035D01*
X3319855D01*
X3322394Y825496D01*
Y820417D01*
X3319855Y817878D01*
X3312238D01*
X3337629Y825496D02*
X3335090Y828035D01*
X3330012D01*
X3327473Y825496D01*
Y815339D01*
X3330012Y812800D01*
X3335090D01*
X3337629Y815339D01*
X3342708Y828035D02*
Y812800D01*
X3350325D01*
X3352864Y815339D01*
Y817878D01*
X3350325Y820417D01*
X3342708D01*
X3350325D01*
X3352864Y822957D01*
Y825496D01*
X3350325Y828035D01*
X3342708D01*
X3373178Y812800D02*
X3378256D01*
X3375717D01*
Y828035D01*
X3373178D01*
X3388413Y822957D02*
X3393491D01*
X3396030Y820417D01*
Y812800D01*
X3388413D01*
X3385874Y815339D01*
X3388413Y817878D01*
X3396030D01*
X3401109Y822957D02*
Y815339D01*
X3403648Y812800D01*
X3411266D01*
Y810261D01*
X3408726Y807722D01*
X3406187D01*
X3411266Y812800D02*
Y822957D01*
X3418883Y812800D02*
X3423961D01*
X3426501Y815339D01*
Y820417D01*
X3423961Y822957D01*
X3418883D01*
X3416344Y820417D01*
Y815339D01*
X3418883Y812800D01*
X3431579Y822957D02*
Y815339D01*
X3434118Y812800D01*
X3441736D01*
Y822957D01*
X3449353Y825496D02*
Y822957D01*
X3446814D01*
X3451892D01*
X3449353D01*
Y815339D01*
X3451892Y812800D01*
D48*
X1062150Y1126780D02*
G03*
X1062150Y1126780I-5080J0D01*
G01*
Y1144560D02*
G03*
X1062150Y1144560I-5080J0D01*
G01*
Y1055660D02*
G03*
X1062150Y1055660I-5080J0D01*
G01*
Y1037880D02*
G03*
X1062150Y1037880I-5080J0D01*
G01*
Y966760D02*
G03*
X1062150Y966760I-5080J0D01*
G01*
Y948980D02*
G03*
X1062150Y948980I-5080J0D01*
G01*
X1696720Y1307340D02*
G03*
X1696720Y1307340I-5080J0D01*
G01*
Y1212340D02*
G03*
X1696720Y1212340I-5080J0D01*
G01*
X1466850Y984250D02*
G03*
X1466850Y984250I-5080J0D01*
G01*
Y1060450D02*
G03*
X1466850Y1060450I-5080J0D01*
G01*
Y1136650D02*
G03*
X1466850Y1136650I-5080J0D01*
G01*
D49*
X1694688Y1307340D02*
G03*
X1694688Y1307340I-3048J0D01*
G01*
Y1212340D02*
G03*
X1694688Y1212340I-3048J0D01*
G01*
X1464818Y984250D02*
G03*
X1464818Y984250I-3048J0D01*
G01*
Y1060450D02*
G03*
X1464818Y1060450I-3048J0D01*
G01*
Y1136650D02*
G03*
X1464818Y1136650I-3048J0D01*
G01*
D50*
X1870988Y1260851D02*
X1867941Y1263898D01*
X1861847D01*
X1858800Y1260851D01*
Y1257804D01*
X1861847Y1254757D01*
X1867941D01*
X1870988Y1251710D01*
Y1248663D01*
X1867941Y1245616D01*
X1861847D01*
X1858800Y1248663D01*
X1877082Y1257804D02*
Y1248663D01*
X1880129Y1245616D01*
X1889270D01*
Y1242569D01*
X1886223Y1239522D01*
X1883176D01*
X1889270Y1245616D02*
Y1257804D01*
X1895364Y1245616D02*
Y1257804D01*
X1898411D01*
X1901458Y1254757D01*
Y1245616D01*
Y1254757D01*
X1904505Y1257804D01*
X1907552Y1254757D01*
Y1245616D01*
X1913646Y1263898D02*
Y1245616D01*
X1922787D01*
X1925834Y1248663D01*
Y1251710D01*
Y1254757D01*
X1922787Y1257804D01*
X1913646D01*
X1934975Y1245616D02*
X1941069D01*
X1944116Y1248663D01*
Y1254757D01*
X1941069Y1257804D01*
X1934975D01*
X1931928Y1254757D01*
Y1248663D01*
X1934975Y1245616D01*
X1950210D02*
X1956304D01*
X1953257D01*
Y1263898D01*
X1950210D01*
X1986784D02*
Y1245616D01*
Y1254757D01*
X1998972D01*
Y1263898D01*
Y1245616D01*
X2005067D02*
X2011160D01*
X2008114D01*
Y1257804D01*
X2005067D01*
X2023349Y1260851D02*
Y1257804D01*
X2020302D01*
X2026396D01*
X2023349D01*
Y1248663D01*
X2026396Y1245616D01*
X2066007Y1260851D02*
X2062960Y1263898D01*
X2056866D01*
X2053819Y1260851D01*
Y1248663D01*
X2056866Y1245616D01*
X2062960D01*
X2066007Y1248663D01*
X2075148Y1245616D02*
X2081242D01*
X2084289Y1248663D01*
Y1254757D01*
X2081242Y1257804D01*
X2075148D01*
X2072101Y1254757D01*
Y1248663D01*
X2075148Y1245616D01*
X2090383Y1257804D02*
Y1248663D01*
X2093430Y1245616D01*
X2102571D01*
Y1257804D01*
X2108665Y1245616D02*
Y1257804D01*
X2117806D01*
X2120853Y1254757D01*
Y1245616D01*
X2129994Y1260851D02*
Y1257804D01*
X2126947D01*
X2133041D01*
X2129994D01*
Y1248663D01*
X2133041Y1245616D01*
X2163521Y1263898D02*
X2175709D01*
X2169615D01*
Y1245616D01*
X2184850D02*
X2190944D01*
X2193991Y1248663D01*
Y1254757D01*
X2190944Y1257804D01*
X2184850D01*
X2181803Y1254757D01*
Y1248663D01*
X2184850Y1245616D01*
X2203132D02*
X2209226D01*
X2212273Y1248663D01*
Y1254757D01*
X2209226Y1257804D01*
X2203132D01*
X2200085Y1254757D01*
Y1248663D01*
X2203132Y1245616D01*
X2218367D02*
X2224461D01*
X2221414D01*
Y1263898D01*
X2218367D01*
X2264073Y1260851D02*
X2261026Y1263898D01*
X2254931D01*
X2251884Y1260851D01*
Y1257804D01*
X2254931Y1254757D01*
X2261026D01*
X2264073Y1251710D01*
Y1248663D01*
X2261026Y1245616D01*
X2254931D01*
X2251884Y1248663D01*
X2270167Y1245616D02*
X2276261D01*
X2273214D01*
Y1257804D01*
X2270167D01*
X2285402D02*
X2297590D01*
X2285402Y1245616D01*
X2297590D01*
X2312825D02*
X2306731D01*
X2303684Y1248663D01*
Y1254757D01*
X2306731Y1257804D01*
X2312825D01*
X2315872Y1254757D01*
Y1251710D01*
X2303684D01*
X2455028Y1245616D02*
Y1263898D01*
X2464169D01*
X2467216Y1260851D01*
Y1254757D01*
X2464169Y1251710D01*
X2455028D01*
X2473310Y1263898D02*
Y1245616D01*
Y1254757D01*
X2476357Y1257804D01*
X2482451D01*
X2485498Y1254757D01*
Y1245616D01*
X2491592Y1257804D02*
Y1248663D01*
X2494639Y1245616D01*
X2503780D01*
Y1242569D01*
X2500733Y1239522D01*
X2497686D01*
X2503780Y1245616D02*
Y1257804D01*
X2509874Y1245616D02*
X2519015D01*
X2522062Y1248663D01*
X2519015Y1251710D01*
X2512921D01*
X2509874Y1254757D01*
X2512921Y1257804D01*
X2522062D01*
X2528156Y1245616D02*
X2534250D01*
X2531203D01*
Y1257804D01*
X2528156D01*
X2555579D02*
X2546438D01*
X2543391Y1254757D01*
Y1248663D01*
X2546438Y1245616D01*
X2555579D01*
X2564720Y1257804D02*
X2570814D01*
X2573861Y1254757D01*
Y1245616D01*
X2564720D01*
X2561673Y1248663D01*
X2564720Y1251710D01*
X2573861D01*
X2579955Y1245616D02*
X2586049D01*
X2583002D01*
Y1263898D01*
X2579955D01*
X2613472D02*
Y1245616D01*
X2625660D01*
X2640895D02*
X2634801D01*
X2631754Y1248663D01*
Y1254757D01*
X2634801Y1257804D01*
X2640895D01*
X2643943Y1254757D01*
Y1251710D01*
X2631754D01*
X2650037Y1245616D02*
Y1257804D01*
X2659178D01*
X2662224Y1254757D01*
Y1245616D01*
X2674413Y1239522D02*
X2677460D01*
X2680507Y1242569D01*
Y1257804D01*
X2671366D01*
X2668318Y1254757D01*
Y1248663D01*
X2671366Y1245616D01*
X2680507D01*
X2689648Y1260851D02*
Y1257804D01*
X2686601D01*
X2692695D01*
X2689648D01*
Y1248663D01*
X2692695Y1245616D01*
X2701836Y1263898D02*
Y1245616D01*
Y1254757D01*
X2704883Y1257804D01*
X2710977D01*
X2714024Y1254757D01*
Y1245616D01*
X2744504D02*
Y1263898D01*
X2753645D01*
X2756692Y1260851D01*
Y1254757D01*
X2753645Y1251710D01*
X2744504D01*
X2750598D02*
X2756692Y1245616D01*
X2765833D02*
X2771927D01*
X2774974Y1248663D01*
Y1254757D01*
X2771927Y1257804D01*
X2765833D01*
X2762786Y1254757D01*
Y1248663D01*
X2765833Y1245616D01*
X2781068Y1257804D02*
Y1248663D01*
X2784115Y1245616D01*
X2793256D01*
Y1257804D01*
X2802397Y1260851D02*
Y1257804D01*
X2799350D01*
X2805444D01*
X2802397D01*
Y1248663D01*
X2805444Y1245616D01*
X2832867D02*
Y1263898D01*
X2842008D01*
X2845055Y1260851D01*
Y1254757D01*
X2842008Y1251710D01*
X2832867D01*
X2854196Y1257804D02*
X2860290D01*
X2863337Y1254757D01*
Y1245616D01*
X2854196D01*
X2851149Y1248663D01*
X2854196Y1251710D01*
X2863337D01*
X2872478Y1260851D02*
Y1257804D01*
X2869431D01*
X2875526D01*
X2872478D01*
Y1248663D01*
X2875526Y1245616D01*
X2884666Y1263898D02*
Y1245616D01*
Y1254757D01*
X2887713Y1257804D01*
X2893807D01*
X2896855Y1254757D01*
Y1245616D01*
X2921230Y1263898D02*
Y1245616D01*
X2933419D01*
X2948654D02*
X2942560D01*
X2939513Y1248663D01*
Y1254757D01*
X2942560Y1257804D01*
X2948654D01*
X2951701Y1254757D01*
Y1251710D01*
X2939513D01*
X2957795Y1245616D02*
Y1257804D01*
X2966936D01*
X2969983Y1254757D01*
Y1245616D01*
X2982171Y1239522D02*
X2985218D01*
X2988265Y1242569D01*
Y1257804D01*
X2979124D01*
X2976077Y1254757D01*
Y1248663D01*
X2979124Y1245616D01*
X2988265D01*
X2997406Y1260851D02*
Y1257804D01*
X2994359D01*
X3000453D01*
X2997406D01*
Y1248663D01*
X3000453Y1245616D01*
X3009594Y1263898D02*
Y1245616D01*
Y1254757D01*
X3012641Y1257804D01*
X3018735D01*
X3021782Y1254757D01*
Y1245616D01*
X3052262D02*
Y1263898D01*
X3061403D01*
X3064450Y1260851D01*
Y1254757D01*
X3061403Y1251710D01*
X3052262D01*
X3070544Y1245616D02*
X3076638D01*
X3073591D01*
Y1263898D01*
X3070544D01*
X3088826Y1257804D02*
X3094920D01*
X3097967Y1254757D01*
Y1245616D01*
X3088826D01*
X3085779Y1248663D01*
X3088826Y1251710D01*
X3097967D01*
X3107108Y1260851D02*
Y1257804D01*
X3104061D01*
X3110155D01*
X3107108D01*
Y1248663D01*
X3110155Y1245616D01*
X3128438D02*
X3122343D01*
X3119296Y1248663D01*
Y1254757D01*
X3122343Y1257804D01*
X3128438D01*
X3131484Y1254757D01*
Y1251710D01*
X3119296D01*
X3149767Y1263898D02*
Y1245616D01*
X3140625D01*
X3137578Y1248663D01*
Y1254757D01*
X3140625Y1257804D01*
X3149767D01*
X3180247Y1263898D02*
Y1245616D01*
Y1254757D01*
X3192435D01*
Y1263898D01*
Y1245616D01*
X3201576D02*
X3207670D01*
X3210717Y1248663D01*
Y1254757D01*
X3207670Y1257804D01*
X3201576D01*
X3198529Y1254757D01*
Y1248663D01*
X3201576Y1245616D01*
X3216811D02*
X3222905D01*
X3219858D01*
Y1263898D01*
X3216811D01*
X3241187Y1245616D02*
X3235093D01*
X3232046Y1248663D01*
Y1254757D01*
X3235093Y1257804D01*
X3241187D01*
X3244234Y1254757D01*
Y1251710D01*
X3232046D01*
X3268610Y1263898D02*
X3280798D01*
X3274704D01*
Y1245616D01*
X3286892Y1257804D02*
Y1248663D01*
X3289939Y1245616D01*
X3299080D01*
Y1242569D01*
X3296033Y1239522D01*
X3292986D01*
X3299080Y1245616D02*
Y1257804D01*
X3305174Y1239522D02*
Y1257804D01*
X3314315D01*
X3317362Y1254757D01*
Y1248663D01*
X3314315Y1245616D01*
X3305174D01*
X3332597D02*
X3326503D01*
X3323456Y1248663D01*
Y1254757D01*
X3326503Y1257804D01*
X3332597D01*
X3335644Y1254757D01*
Y1251710D01*
X3323456D01*
X1836448Y1273048D02*
X3366124D01*
X1836448Y1231900D02*
X3366124D01*
X1836448Y1273048D02*
Y866140D01*
X3366124Y1273048D02*
Y866140D01*
X1975608Y1273048D02*
Y866140D01*
X2152345Y1273048D02*
Y866140D01*
X2443852Y1273048D02*
Y866140D01*
X2733328Y1273048D02*
Y866140D01*
X3041086Y1273048D02*
Y866140D01*
X3169070Y1273048D02*
Y866140D01*
X1836448Y896620D02*
X3366124D01*
X1836448Y866140D02*
X3366124D01*
D51*
X1870992Y1033780D02*
G03*
X1870992Y1033780I-6096J0D01*
G01*
Y942340D02*
G03*
X1870992Y942340I-6096J0D01*
G01*
D52*
X1868452Y1033780D02*
G03*
X1868452Y1033780I-3556J0D01*
G01*
D53*
X1868957Y855976D02*
X1866418Y858515D01*
X1861339D01*
X1858800Y855976D01*
Y853437D01*
X1861339Y850898D01*
X1866418D01*
X1868957Y848358D01*
Y845819D01*
X1866418Y843280D01*
X1861339D01*
X1858800Y845819D01*
X1874035Y843280D02*
X1879113D01*
X1876574D01*
Y858515D01*
X1874035D01*
X1889270Y843280D02*
X1894348D01*
X1896888Y845819D01*
Y850898D01*
X1894348Y853437D01*
X1889270D01*
X1886731Y850898D01*
Y845819D01*
X1889270Y843280D01*
X1904505Y855976D02*
Y853437D01*
X1901966D01*
X1907044D01*
X1904505D01*
Y845819D01*
X1907044Y843280D01*
X1940054Y858515D02*
Y843280D01*
X1932436D01*
X1929897Y845819D01*
Y850898D01*
X1932436Y853437D01*
X1940054D01*
X1952750Y843280D02*
X1947671D01*
X1945132Y845819D01*
Y850898D01*
X1947671Y853437D01*
X1952750D01*
X1955289Y850898D01*
Y848358D01*
X1945132D01*
X1962906Y843280D02*
Y855976D01*
Y850898D01*
X1960367D01*
X1965446D01*
X1962906D01*
Y855976D01*
X1965446Y858515D01*
X1973063Y843280D02*
X1978141D01*
X1975602D01*
Y853437D01*
X1973063D01*
X1985759Y843280D02*
Y853437D01*
X1993376D01*
X1995916Y850898D01*
Y843280D01*
X2000994D02*
X2006072D01*
X2003533D01*
Y853437D01*
X2000994D01*
X2016229Y855976D02*
Y853437D01*
X2013690D01*
X2018768D01*
X2016229D01*
Y845819D01*
X2018768Y843280D01*
X2026386D02*
X2031464D01*
X2028925D01*
Y853437D01*
X2026386D01*
X2041621Y843280D02*
X2046699D01*
X2049238Y845819D01*
Y850898D01*
X2046699Y853437D01*
X2041621D01*
X2039082Y850898D01*
Y845819D01*
X2041621Y843280D01*
X2054317D02*
Y853437D01*
X2061934D01*
X2064473Y850898D01*
Y843280D01*
X2069552D02*
X2077169D01*
X2079709Y845819D01*
X2077169Y848358D01*
X2072091D01*
X2069552Y850898D01*
X2072091Y853437D01*
X2079709D01*
X2100022D02*
X2102561D01*
Y850898D01*
X2100022D01*
Y853437D01*
Y845819D02*
X2102561D01*
Y843280D01*
X2100022D01*
Y845819D01*
X2132025Y843280D02*
Y858515D01*
X2139643D01*
X2142182Y855976D01*
Y850898D01*
X2139643Y848358D01*
X2132025D01*
X2137103D02*
X2142182Y843280D01*
X2149799D02*
X2154878D01*
X2157417Y845819D01*
Y850898D01*
X2154878Y853437D01*
X2149799D01*
X2147260Y850898D01*
Y845819D01*
X2149799Y843280D01*
X2162495Y853437D02*
Y845819D01*
X2165034Y843280D01*
X2172652D01*
Y853437D01*
X2180269Y855976D02*
Y853437D01*
X2177730D01*
X2182809D01*
X2180269D01*
Y845819D01*
X2182809Y843280D01*
X2205661D02*
Y858515D01*
X2213279D01*
X2215818Y855976D01*
Y850898D01*
X2213279Y848358D01*
X2205661D01*
X2223436Y853437D02*
X2228514D01*
X2231053Y850898D01*
Y843280D01*
X2223436D01*
X2220896Y845819D01*
X2223436Y848358D01*
X2231053D01*
X2238671Y855976D02*
Y853437D01*
X2236131D01*
X2241210D01*
X2238671D01*
Y845819D01*
X2241210Y843280D01*
X2248827Y858515D02*
Y843280D01*
Y850898D01*
X2251366Y853437D01*
X2256445D01*
X2258984Y850898D01*
Y843280D01*
X2279297Y858515D02*
Y843280D01*
X2289454D01*
X2302150D02*
X2297072D01*
X2294532Y845819D01*
Y850898D01*
X2297072Y853437D01*
X2302150D01*
X2304689Y850898D01*
Y848358D01*
X2294532D01*
X2309768Y843280D02*
Y853437D01*
X2317385D01*
X2319924Y850898D01*
Y843280D01*
X2330081Y838202D02*
X2332620D01*
X2335159Y840741D01*
Y853437D01*
X2327542D01*
X2325003Y850898D01*
Y845819D01*
X2327542Y843280D01*
X2335159D01*
X2342777Y855976D02*
Y853437D01*
X2340238D01*
X2345316D01*
X2342777D01*
Y845819D01*
X2345316Y843280D01*
X2352934Y858515D02*
Y843280D01*
Y850898D01*
X2355473Y853437D01*
X2360551D01*
X2363090Y850898D01*
Y843280D01*
X2132025Y812800D02*
Y828035D01*
X2139643D01*
X2142182Y825496D01*
Y820417D01*
X2139643Y817878D01*
X2132025D01*
X2147260Y828035D02*
Y812800D01*
Y820417D01*
X2149799Y822957D01*
X2154878D01*
X2157417Y820417D01*
Y812800D01*
X2162495Y822957D02*
Y815339D01*
X2165034Y812800D01*
X2172652D01*
Y810261D01*
X2170113Y807722D01*
X2167574D01*
X2172652Y812800D02*
Y822957D01*
X2177730Y812800D02*
X2185348D01*
X2187887Y815339D01*
X2185348Y817878D01*
X2180269D01*
X2177730Y820417D01*
X2180269Y822957D01*
X2187887D01*
X2192965Y812800D02*
X2198044D01*
X2195505D01*
Y822957D01*
X2192965D01*
X2215818D02*
X2208201D01*
X2205661Y820417D01*
Y815339D01*
X2208201Y812800D01*
X2215818D01*
X2223436Y822957D02*
X2228514D01*
X2231053Y820417D01*
Y812800D01*
X2223436D01*
X2220896Y815339D01*
X2223436Y817878D01*
X2231053D01*
X2236131Y812800D02*
X2241210D01*
X2238671D01*
Y828035D01*
X2236131D01*
X2264062D02*
Y812800D01*
X2274219D01*
X2286915D02*
X2281837D01*
X2279297Y815339D01*
Y820417D01*
X2281837Y822957D01*
X2286915D01*
X2289454Y820417D01*
Y817878D01*
X2279297D01*
X2294532Y812800D02*
Y822957D01*
X2302150D01*
X2304689Y820417D01*
Y812800D01*
X2314846Y807722D02*
X2317385D01*
X2319924Y810261D01*
Y822957D01*
X2312307D01*
X2309768Y820417D01*
Y815339D01*
X2312307Y812800D01*
X2319924D01*
X2327542Y825496D02*
Y822957D01*
X2325003D01*
X2330081D01*
X2327542D01*
Y815339D01*
X2330081Y812800D01*
X2337699Y828035D02*
Y812800D01*
Y820417D01*
X2340238Y822957D01*
X2345316D01*
X2347855Y820417D01*
Y812800D01*
M02*
