%FSLAX44Y44*%
%MOMM*%
G71*
G01*
G75*
G04 Layer_Physical_Order=2*
G04 Layer_Color=32768*
%ADD10R,0.8000X0.4000*%
%ADD11O,0.8000X0.4000*%
%ADD12C,0.2000*%
%ADD13C,1.5000*%
%ADD14R,1.5000X1.5000*%
%ADD15R,1.5000X1.5000*%
%ADD16C,4.7600*%
%ADD17R,1.6900X1.6900*%
%ADD18C,1.6900*%
%ADD19C,1.0000*%
%ADD20C,1.3000*%
%ADD21C,1.2700*%
%ADD22C,1.0160*%
%ADD23C,1.9160*%
%ADD24C,4.2760*%
%ADD25C,2.1060*%
%ADD26C,1.5660*%
%ADD27C,1.7160*%
%ADD28C,1.7272*%
D22*
X508000Y762000D02*
Y1162000D01*
X1058000D01*
Y762000D02*
Y1162000D01*
X508000Y762000D02*
X1058000D01*
D23*
X787400Y1117600D02*
D03*
X812800D02*
D03*
X838200D02*
D03*
X1021080Y1051560D02*
D03*
Y1026160D02*
D03*
Y924560D02*
D03*
Y899160D02*
D03*
X701040Y985520D02*
D03*
X726440D02*
D03*
X701040Y960120D02*
D03*
X726440D02*
D03*
X701040Y934720D02*
D03*
X726440D02*
D03*
D24*
X584450Y840250D02*
D03*
Y1090150D02*
D03*
D25*
X570250Y1020600D02*
D03*
X598650Y1006750D02*
D03*
X570250Y992900D02*
D03*
X598650Y979050D02*
D03*
X570250Y965200D02*
D03*
X598650Y951350D02*
D03*
X570250Y937500D02*
D03*
X598650Y923650D02*
D03*
X570250Y909800D02*
D03*
D26*
X734060Y883920D02*
D03*
X708660D02*
D03*
X734060Y848360D02*
D03*
X708660D02*
D03*
X962660Y960120D02*
D03*
X937260D02*
D03*
X962660Y1010920D02*
D03*
X937260D02*
D03*
D27*
X777240Y893080D02*
D03*
Y844280D02*
D03*
D28*
X815340Y855980D02*
D03*
X904240Y960120D02*
D03*
X796290Y948690D02*
D03*
X745490Y960120D02*
D03*
M02*
