%FSLAX44Y44*%
%MOMM*%
G71*
G01*
G75*
G04 Layer_Color=2752767*
%ADD10R,0.8000X0.4000*%
%ADD11O,0.8000X0.4000*%
%ADD12C,0.2000*%
%ADD13C,1.5000*%
%ADD14R,1.5000X1.5000*%
%ADD15R,1.5000X1.5000*%
%ADD16C,4.7600*%
%ADD17R,1.6900X1.6900*%
%ADD18C,1.6900*%
%ADD19C,1.0000*%
%ADD20C,1.3000*%
%ADD21C,1.2700*%
%ADD22C,0.1000*%
%ADD23C,0.2540*%
%ADD24C,0.1500*%
%ADD25C,0.2032*%
%ADD26R,1.0032X0.6032*%
%ADD27O,1.0032X0.6032*%
%ADD28C,1.7032*%
%ADD29R,1.7032X1.7032*%
%ADD30R,1.7032X1.7032*%
%ADD31C,4.9632*%
%ADD32R,1.8932X1.8932*%
%ADD33C,1.8932*%
%ADD34C,1.2032*%
%ADD35C,1.5032*%
%ADD36C,1.4732*%
%ADD37C,0.3000*%
%ADD38C,0.1693*%
%ADD39C,0.4064*%
D22*
X782320Y1112520D02*
Y1122680D01*
X792480D01*
Y1112520D01*
X782320D01*
X807720D02*
Y1122680D01*
X817880D01*
Y1112520D01*
X807720D01*
X833120D02*
Y1122680D01*
X843280D01*
Y1112520D01*
X833120D01*
X1016000Y1046480D02*
Y1056640D01*
X1026160D01*
Y1046480D01*
X1016000D01*
Y1021080D02*
Y1031240D01*
X1026160D01*
Y1021080D01*
X1016000D01*
Y919480D02*
Y929640D01*
X1026160D01*
Y919480D01*
X1016000D01*
Y894080D02*
Y904240D01*
X1026160D01*
Y894080D01*
X1016000D01*
X570250Y1015520D02*
X565170Y1025680D01*
X575330D01*
X570250Y1015520D01*
X598650Y1001670D02*
X593570Y1011830D01*
X603730D01*
X598650Y1001670D01*
X570250Y987820D02*
X565170Y997980D01*
X575330D01*
X570250Y987820D01*
X598650Y973970D02*
X593570Y984130D01*
X603730D01*
X598650Y973970D01*
X570250Y960120D02*
X565170Y970280D01*
X575330D01*
X570250Y960120D01*
X598650Y946270D02*
X593570Y956430D01*
X603730D01*
X598650Y946270D01*
X570250Y932420D02*
X565170Y942580D01*
X575330D01*
X570250Y932420D01*
X598650Y918570D02*
X593570Y928730D01*
X603730D01*
X598650Y918570D01*
X570250Y904720D02*
X565170Y914880D01*
X575330D01*
X570250Y904720D01*
X695960Y980440D02*
Y990600D01*
X706120D01*
Y980440D01*
X695960D01*
X721360D02*
Y990600D01*
X731520D01*
Y980440D01*
X721360D01*
X695960Y955040D02*
Y965200D01*
X706120D01*
Y955040D01*
X695960D01*
X721360D02*
Y965200D01*
X731520D01*
Y955040D01*
X721360D01*
X695960Y929640D02*
Y939800D01*
X706120D01*
Y929640D01*
X695960D01*
X721360D02*
Y939800D01*
X731520D01*
Y929640D01*
X721360D01*
X734060Y878840D02*
X736600Y881380D01*
X739140D01*
X736600Y883920D01*
X739140Y886460D01*
X736600D01*
X734060Y889000D01*
X731520Y886460D01*
X728980D01*
X731520Y883920D01*
X728980Y881380D01*
X731520D01*
X734060Y878840D01*
X708660D02*
X711200Y881380D01*
X713740D01*
X711200Y883920D01*
X713740Y886460D01*
X711200D01*
X708660Y889000D01*
X706120Y886460D01*
X703580D01*
X706120Y883920D01*
X703580Y881380D01*
X706120D01*
X708660Y878840D01*
X734060Y843280D02*
X736600Y845820D01*
X739140D01*
X736600Y848360D01*
X739140Y850900D01*
X736600D01*
X734060Y853440D01*
X731520Y850900D01*
X728980D01*
X731520Y848360D01*
X728980Y845820D01*
X731520D01*
X734060Y843280D01*
X708660D02*
X711200Y845820D01*
X713740D01*
X711200Y848360D01*
X713740Y850900D01*
X711200D01*
X708660Y853440D01*
X706120Y850900D01*
X703580D01*
X706120Y848360D01*
X703580Y845820D01*
X706120D01*
X708660Y843280D01*
X772160Y888000D02*
X774700Y893080D01*
X772160Y898160D01*
X777240Y895620D01*
X782320Y898160D01*
X779780Y893080D01*
X782320Y888000D01*
X777240Y890540D01*
X772160Y888000D01*
Y839200D02*
X774700Y844280D01*
X772160Y849360D01*
X777240Y846820D01*
X782320Y849360D01*
X779780Y844280D01*
X782320Y839200D01*
X777240Y841740D01*
X772160Y839200D01*
X962660Y955040D02*
X965200Y957580D01*
X967740D01*
X965200Y960120D01*
X967740Y962660D01*
X965200D01*
X962660Y965200D01*
X960120Y962660D01*
X957580D01*
X960120Y960120D01*
X957580Y957580D01*
X960120D01*
X962660Y955040D01*
X937260D02*
X939800Y957580D01*
X942340D01*
X939800Y960120D01*
X942340Y962660D01*
X939800D01*
X937260Y965200D01*
X934720Y962660D01*
X932180D01*
X934720Y960120D01*
X932180Y957580D01*
X934720D01*
X937260Y955040D01*
X962660Y1005840D02*
X965200Y1008380D01*
X967740D01*
X965200Y1010920D01*
X967740Y1013460D01*
X965200D01*
X962660Y1016000D01*
X960120Y1013460D01*
X957580D01*
X960120Y1010920D01*
X957580Y1008380D01*
X960120D01*
X962660Y1005840D01*
X937260D02*
X939800Y1008380D01*
X942340D01*
X939800Y1010920D01*
X942340Y1013460D01*
X939800D01*
X937260Y1016000D01*
X934720Y1013460D01*
X932180D01*
X934720Y1010920D01*
X932180Y1008380D01*
X934720D01*
X937260Y1005840D01*
X812800Y853440D02*
Y850900D01*
X817880D01*
Y853440D01*
X820420D01*
Y858520D01*
X817880D01*
Y861060D01*
X812800D01*
Y858520D01*
X810260D01*
Y853440D01*
X812800D01*
X901700Y957580D02*
Y955040D01*
X906780D01*
Y957580D01*
X909320D01*
Y962660D01*
X906780D01*
Y965200D01*
X901700D01*
Y962660D01*
X899160D01*
Y957580D01*
X901700D01*
X793750Y946150D02*
Y943610D01*
X798830D01*
Y946150D01*
X801370D01*
Y951230D01*
X798830D01*
Y953770D01*
X793750D01*
Y951230D01*
X791210D01*
Y946150D01*
X793750D01*
X742950Y957580D02*
Y955040D01*
X748030D01*
Y957580D01*
X750570D01*
Y962660D01*
X748030D01*
Y965200D01*
X742950D01*
Y962660D01*
X740410D01*
Y957580D01*
X742950D01*
X1114896Y997204D02*
X1117944Y1000252D01*
X1120992D01*
X1117944Y1003300D01*
X1120992Y1006348D01*
X1117944D01*
X1114896Y1009396D01*
X1111848Y1006348D01*
X1108800D01*
X1111848Y1003300D01*
X1108800Y1000252D01*
X1111848D01*
X1114896Y997204D01*
X1108800Y966724D02*
X1111848Y972820D01*
X1108800Y978916D01*
X1114896Y975868D01*
X1120992Y978916D01*
X1117944Y972820D01*
X1120992Y966724D01*
X1114896Y969772D01*
X1108800Y966724D01*
X1111848Y939292D02*
Y936244D01*
X1117944D01*
Y939292D01*
X1120992D01*
Y945388D01*
X1117944D01*
Y948436D01*
X1111848D01*
Y945388D01*
X1108800D01*
Y939292D01*
X1111848D01*
X1108800Y905764D02*
Y917956D01*
X1120992D01*
Y905764D01*
X1108800D01*
X1114896Y875284D02*
X1108800Y887476D01*
X1120992D01*
X1114896Y875284D01*
D23*
X1108800Y802635D02*
Y787400D01*
X1116417D01*
X1118957Y789939D01*
Y800096D01*
X1116417Y802635D01*
X1108800D01*
X1124035Y797557D02*
Y787400D01*
Y792478D01*
X1126574Y795017D01*
X1129113Y797557D01*
X1131653D01*
X1139270Y787400D02*
X1144349D01*
X1141809D01*
Y797557D01*
X1139270D01*
X1151966Y787400D02*
X1157044D01*
X1154505D01*
Y802635D01*
X1151966D01*
X1164662Y787400D02*
X1169740D01*
X1167201D01*
Y802635D01*
X1164662D01*
X1192593D02*
Y787400D01*
X1200210D01*
X1202750Y789939D01*
Y800096D01*
X1200210Y802635D01*
X1192593D01*
X1207828Y797557D02*
Y787400D01*
Y792478D01*
X1210367Y795017D01*
X1212906Y797557D01*
X1215445D01*
X1225602D02*
X1230680D01*
X1233220Y795017D01*
Y787400D01*
X1225602D01*
X1223063Y789939D01*
X1225602Y792478D01*
X1233220D01*
X1238298Y797557D02*
Y789939D01*
X1240837Y787400D01*
X1243376Y789939D01*
X1245916Y787400D01*
X1248455Y789939D01*
Y797557D01*
X1253533Y787400D02*
X1258612D01*
X1256072D01*
Y797557D01*
X1253533D01*
X1266229Y787400D02*
Y797557D01*
X1273847D01*
X1276386Y795017D01*
Y787400D01*
X1286543Y782322D02*
X1289082D01*
X1291621Y784861D01*
Y797557D01*
X1284003D01*
X1281464Y795017D01*
Y789939D01*
X1284003Y787400D01*
X1291621D01*
X1296699D02*
Y789939D01*
X1299238D01*
Y787400D01*
X1296699D01*
X1236784Y1008376D02*
X1239324Y1010915D01*
X1244402D01*
X1246941Y1008376D01*
Y1005837D01*
X1244402Y1003298D01*
X1246941Y1000758D01*
Y998219D01*
X1244402Y995680D01*
X1239324D01*
X1236784Y998219D01*
Y1000758D01*
X1239324Y1003298D01*
X1236784Y1005837D01*
Y1008376D01*
X1239324Y1003298D02*
X1244402D01*
X1413521Y1008376D02*
X1416060Y1010915D01*
X1421139D01*
X1423678Y1008376D01*
Y998219D01*
X1421139Y995680D01*
X1416060D01*
X1413521Y998219D01*
Y1008376D01*
X1428756Y995680D02*
Y998219D01*
X1431295D01*
Y995680D01*
X1428756D01*
X1451609Y1010915D02*
X1441452D01*
Y1003298D01*
X1446530Y1005837D01*
X1449070D01*
X1451609Y1003298D01*
Y998219D01*
X1449070Y995680D01*
X1443991D01*
X1441452Y998219D01*
X1466844Y1010915D02*
X1456687D01*
Y1003298D01*
X1461765Y1005837D01*
X1464305D01*
X1466844Y1003298D01*
Y998219D01*
X1464305Y995680D01*
X1459226D01*
X1456687Y998219D01*
X1471922Y995680D02*
Y1005837D01*
X1474461D01*
X1477000Y1003298D01*
Y995680D01*
Y1003298D01*
X1479540Y1005837D01*
X1482079Y1003298D01*
Y995680D01*
X1487157D02*
Y1005837D01*
X1489696D01*
X1492236Y1003298D01*
Y995680D01*
Y1003298D01*
X1494775Y1005837D01*
X1497314Y1003298D01*
Y995680D01*
X1522706D02*
X1517627Y1000758D01*
Y1005837D01*
X1522706Y1010915D01*
X1540480Y995680D02*
X1530323D01*
X1540480Y1005837D01*
Y1008376D01*
X1537941Y1010915D01*
X1532863D01*
X1530323Y1008376D01*
X1545558Y995680D02*
X1550637D01*
X1548098D01*
Y1010915D01*
X1545558Y1008376D01*
X1558254Y995680D02*
Y998219D01*
X1560793D01*
Y995680D01*
X1558254D01*
X1581107Y1010915D02*
X1576028Y1008376D01*
X1570950Y1003298D01*
Y998219D01*
X1573489Y995680D01*
X1578568D01*
X1581107Y998219D01*
Y1000758D01*
X1578568Y1003298D01*
X1570950D01*
X1596342Y1010915D02*
X1586185D01*
Y1003298D01*
X1591263Y1005837D01*
X1593803D01*
X1596342Y1003298D01*
Y998219D01*
X1593803Y995680D01*
X1588724D01*
X1586185Y998219D01*
X1609038Y995680D02*
Y1010915D01*
X1601420Y1003298D01*
X1611577D01*
X1616655Y995680D02*
Y1005837D01*
X1619194D01*
X1621734Y1003298D01*
Y995680D01*
Y1003298D01*
X1624273Y1005837D01*
X1626812Y1003298D01*
Y995680D01*
X1631890D02*
X1636969D01*
X1634430D01*
Y1005837D01*
X1631890D01*
X1644586Y995680D02*
X1649665D01*
X1647126D01*
Y1010915D01*
X1644586D01*
X1657282Y995680D02*
X1662361Y1000758D01*
Y1005837D01*
X1657282Y1010915D01*
X1689792Y995680D02*
Y1010915D01*
X1697410D01*
X1699949Y1008376D01*
Y1003298D01*
X1697410Y1000758D01*
X1689792D01*
X1705028Y1010915D02*
X1715184D01*
X1710106D01*
Y995680D01*
X1720263Y1010915D02*
Y995680D01*
Y1003298D01*
X1730419D01*
Y1010915D01*
Y995680D01*
X1817777D02*
Y1010915D01*
X1825394D01*
X1827934Y1008376D01*
Y1003298D01*
X1825394Y1000758D01*
X1817777D01*
X1822855D02*
X1827934Y995680D01*
X1835551D02*
X1840630D01*
X1843169Y998219D01*
Y1003298D01*
X1840630Y1005837D01*
X1835551D01*
X1833012Y1003298D01*
Y998219D01*
X1835551Y995680D01*
X1848247Y1005837D02*
Y998219D01*
X1850786Y995680D01*
X1858404D01*
Y1005837D01*
X1863482Y995680D02*
Y1005837D01*
X1871100D01*
X1873639Y1003298D01*
Y995680D01*
X1888874Y1010915D02*
Y995680D01*
X1881257D01*
X1878717Y998219D01*
Y1003298D01*
X1881257Y1005837D01*
X1888874D01*
X1246941Y965200D02*
X1236784D01*
X1246941Y975357D01*
Y977896D01*
X1244402Y980435D01*
X1239324D01*
X1236784Y977896D01*
X1413521D02*
X1416060Y980435D01*
X1421139D01*
X1423678Y977896D01*
Y967739D01*
X1421139Y965200D01*
X1416060D01*
X1413521Y967739D01*
Y977896D01*
X1428756Y965200D02*
Y967739D01*
X1431295D01*
Y965200D01*
X1428756D01*
X1441452Y980435D02*
X1451609D01*
Y977896D01*
X1441452Y967739D01*
Y965200D01*
X1456687D02*
Y975357D01*
X1459226D01*
X1461765Y972818D01*
Y965200D01*
Y972818D01*
X1464305Y975357D01*
X1466844Y972818D01*
Y965200D01*
X1471922D02*
Y975357D01*
X1474461D01*
X1477000Y972818D01*
Y965200D01*
Y972818D01*
X1479540Y975357D01*
X1482079Y972818D01*
Y965200D01*
X1507471D02*
X1502392Y970278D01*
Y975357D01*
X1507471Y980435D01*
X1525245Y965200D02*
X1515088D01*
X1525245Y975357D01*
Y977896D01*
X1522706Y980435D01*
X1517627D01*
X1515088Y977896D01*
X1530323Y980435D02*
X1540480D01*
Y977896D01*
X1530323Y967739D01*
Y965200D01*
X1545558D02*
Y967739D01*
X1548098D01*
Y965200D01*
X1545558D01*
X1568411Y980435D02*
X1558254D01*
Y972818D01*
X1563333Y975357D01*
X1565872D01*
X1568411Y972818D01*
Y967739D01*
X1565872Y965200D01*
X1560793D01*
X1558254Y967739D01*
X1583646Y980435D02*
X1573489D01*
Y972818D01*
X1578568Y975357D01*
X1581107D01*
X1583646Y972818D01*
Y967739D01*
X1581107Y965200D01*
X1576028D01*
X1573489Y967739D01*
X1588724D02*
X1591264Y965200D01*
X1596342D01*
X1598881Y967739D01*
Y977896D01*
X1596342Y980435D01*
X1591264D01*
X1588724Y977896D01*
Y975357D01*
X1591264Y972818D01*
X1598881D01*
X1603960Y965200D02*
Y975357D01*
X1606499D01*
X1609038Y972818D01*
Y965200D01*
Y972818D01*
X1611577Y975357D01*
X1614116Y972818D01*
Y965200D01*
X1619194D02*
X1624273D01*
X1621734D01*
Y975357D01*
X1619194D01*
X1631890Y965200D02*
X1636969D01*
X1634430D01*
Y980435D01*
X1631890D01*
X1644586Y965200D02*
X1649665Y970278D01*
Y975357D01*
X1644586Y980435D01*
X1689792Y965200D02*
Y980435D01*
X1697410D01*
X1699949Y977896D01*
Y972818D01*
X1697410Y970278D01*
X1689792D01*
X1705028Y980435D02*
X1715184D01*
X1710106D01*
Y965200D01*
X1720263Y980435D02*
Y965200D01*
Y972818D01*
X1730419D01*
Y980435D01*
Y965200D01*
X1817777D02*
Y980435D01*
X1825394D01*
X1827934Y977896D01*
Y972818D01*
X1825394Y970278D01*
X1817777D01*
X1822855D02*
X1827934Y965200D01*
X1835551D02*
X1840630D01*
X1843169Y967739D01*
Y972818D01*
X1840630Y975357D01*
X1835551D01*
X1833012Y972818D01*
Y967739D01*
X1835551Y965200D01*
X1848247Y975357D02*
Y967739D01*
X1850786Y965200D01*
X1858404D01*
Y975357D01*
X1863482Y965200D02*
Y975357D01*
X1871100D01*
X1873639Y972818D01*
Y965200D01*
X1888874Y980435D02*
Y965200D01*
X1881257D01*
X1878717Y967739D01*
Y972818D01*
X1881257Y975357D01*
X1888874D01*
X1244402Y934720D02*
Y949955D01*
X1236784Y942337D01*
X1246941D01*
X1413521Y947416D02*
X1416060Y949955D01*
X1421139D01*
X1423678Y947416D01*
Y937259D01*
X1421139Y934720D01*
X1416060D01*
X1413521Y937259D01*
Y947416D01*
X1428756Y934720D02*
Y937259D01*
X1431295D01*
Y934720D01*
X1428756D01*
X1441452Y949955D02*
X1451609D01*
Y947416D01*
X1441452Y937259D01*
Y934720D01*
X1456687D02*
X1461765D01*
X1459226D01*
Y949955D01*
X1456687Y947416D01*
X1469383Y934720D02*
X1474461D01*
X1471922D01*
Y949955D01*
X1469383Y947416D01*
X1492236Y934720D02*
X1482079D01*
X1492236Y944877D01*
Y947416D01*
X1489696Y949955D01*
X1484618D01*
X1482079Y947416D01*
X1497314Y934720D02*
Y944877D01*
X1499853D01*
X1502392Y942337D01*
Y934720D01*
Y942337D01*
X1504931Y944877D01*
X1507471Y942337D01*
Y934720D01*
X1512549D02*
Y944877D01*
X1515088D01*
X1517627Y942337D01*
Y934720D01*
Y942337D01*
X1520167Y944877D01*
X1522706Y942337D01*
Y934720D01*
X1548098D02*
X1543019Y939798D01*
Y944877D01*
X1548098Y949955D01*
X1565872Y934720D02*
X1555715D01*
X1565872Y944877D01*
Y947416D01*
X1563333Y949955D01*
X1558254D01*
X1555715Y947416D01*
X1570950D02*
X1573489Y949955D01*
X1578568D01*
X1581107Y947416D01*
Y944877D01*
X1578568Y942337D01*
X1581107Y939798D01*
Y937259D01*
X1578568Y934720D01*
X1573489D01*
X1570950Y937259D01*
Y939798D01*
X1573489Y942337D01*
X1570950Y944877D01*
Y947416D01*
X1573489Y942337D02*
X1578568D01*
X1586185Y934720D02*
Y944877D01*
X1588724D01*
X1591263Y942337D01*
Y934720D01*
Y942337D01*
X1593803Y944877D01*
X1596342Y942337D01*
Y934720D01*
X1601420D02*
X1606499D01*
X1603960D01*
Y944877D01*
X1601420D01*
X1614116Y934720D02*
X1619194D01*
X1616655D01*
Y949955D01*
X1614116D01*
X1626812Y934720D02*
X1631890Y939798D01*
Y944877D01*
X1626812Y949955D01*
X1689792Y934720D02*
Y949955D01*
X1697410D01*
X1699949Y947416D01*
Y942337D01*
X1697410Y939798D01*
X1689792D01*
X1705028Y949955D02*
X1715184D01*
X1710106D01*
Y934720D01*
X1720263Y949955D02*
Y934720D01*
Y942337D01*
X1730419D01*
Y949955D01*
Y934720D01*
X1817777D02*
Y949955D01*
X1825394D01*
X1827934Y947416D01*
Y942337D01*
X1825394Y939798D01*
X1817777D01*
X1822855D02*
X1827934Y934720D01*
X1835551D02*
X1840630D01*
X1843169Y937259D01*
Y942337D01*
X1840630Y944877D01*
X1835551D01*
X1833012Y942337D01*
Y937259D01*
X1835551Y934720D01*
X1848247Y944877D02*
Y937259D01*
X1850786Y934720D01*
X1858404D01*
Y944877D01*
X1863482Y934720D02*
Y944877D01*
X1871100D01*
X1873639Y942337D01*
Y934720D01*
X1888874Y949955D02*
Y934720D01*
X1881257D01*
X1878717Y937259D01*
Y942337D01*
X1881257Y944877D01*
X1888874D01*
X1236784Y904240D02*
X1241863D01*
X1239324D01*
Y919475D01*
X1236784Y916936D01*
X1249480D02*
X1252020Y919475D01*
X1257098D01*
X1259637Y916936D01*
Y914397D01*
X1257098Y911858D01*
X1254559D01*
X1257098D01*
X1259637Y909318D01*
Y906779D01*
X1257098Y904240D01*
X1252020D01*
X1249480Y906779D01*
X1413521Y916936D02*
X1416060Y919475D01*
X1421139D01*
X1423678Y916936D01*
Y906779D01*
X1421139Y904240D01*
X1416060D01*
X1413521Y906779D01*
Y916936D01*
X1428756Y904240D02*
Y906779D01*
X1431295D01*
Y904240D01*
X1428756D01*
X1441452Y906779D02*
X1443991Y904240D01*
X1449070D01*
X1451609Y906779D01*
Y916936D01*
X1449070Y919475D01*
X1443991D01*
X1441452Y916936D01*
Y914397D01*
X1443991Y911858D01*
X1451609D01*
X1456687Y904240D02*
Y914397D01*
X1459226D01*
X1461765Y911858D01*
Y904240D01*
Y911858D01*
X1464305Y914397D01*
X1466844Y911858D01*
Y904240D01*
X1471922D02*
Y914397D01*
X1474461D01*
X1477000Y911858D01*
Y904240D01*
Y911858D01*
X1479540Y914397D01*
X1482079Y911858D01*
Y904240D01*
X1507471D02*
X1502392Y909318D01*
Y914397D01*
X1507471Y919475D01*
X1515088Y916936D02*
X1517627Y919475D01*
X1522706D01*
X1525245Y916936D01*
Y914397D01*
X1522706Y911858D01*
X1520167D01*
X1522706D01*
X1525245Y909318D01*
Y906779D01*
X1522706Y904240D01*
X1517627D01*
X1515088Y906779D01*
X1540480Y919475D02*
X1530323D01*
Y911858D01*
X1535402Y914397D01*
X1537941D01*
X1540480Y911858D01*
Y906779D01*
X1537941Y904240D01*
X1532863D01*
X1530323Y906779D01*
X1545558Y904240D02*
Y906779D01*
X1548098D01*
Y904240D01*
X1545558D01*
X1565872D02*
Y919475D01*
X1558254Y911858D01*
X1568411D01*
X1573489Y916936D02*
X1576028Y919475D01*
X1581107D01*
X1583646Y916936D01*
Y914397D01*
X1581107Y911858D01*
X1578568D01*
X1581107D01*
X1583646Y909318D01*
Y906779D01*
X1581107Y904240D01*
X1576028D01*
X1573489Y906779D01*
X1588724Y916936D02*
X1591264Y919475D01*
X1596342D01*
X1598881Y916936D01*
Y914397D01*
X1596342Y911858D01*
X1593803D01*
X1596342D01*
X1598881Y909318D01*
Y906779D01*
X1596342Y904240D01*
X1591264D01*
X1588724Y906779D01*
X1603960Y904240D02*
Y914397D01*
X1606499D01*
X1609038Y911858D01*
Y904240D01*
Y911858D01*
X1611577Y914397D01*
X1614116Y911858D01*
Y904240D01*
X1619194D02*
X1624273D01*
X1621734D01*
Y914397D01*
X1619194D01*
X1631890Y904240D02*
X1636969D01*
X1634430D01*
Y919475D01*
X1631890D01*
X1644586Y904240D02*
X1649665Y909318D01*
Y914397D01*
X1644586Y919475D01*
X1689792Y904240D02*
Y919475D01*
X1697410D01*
X1699949Y916936D01*
Y911858D01*
X1697410Y909318D01*
X1689792D01*
X1705028Y919475D02*
X1715184D01*
X1710106D01*
Y904240D01*
X1720263Y919475D02*
Y904240D01*
Y911858D01*
X1730419D01*
Y919475D01*
Y904240D01*
X1817777D02*
Y919475D01*
X1825394D01*
X1827934Y916936D01*
Y911858D01*
X1825394Y909318D01*
X1817777D01*
X1822855D02*
X1827934Y904240D01*
X1835551D02*
X1840630D01*
X1843169Y906779D01*
Y911858D01*
X1840630Y914397D01*
X1835551D01*
X1833012Y911858D01*
Y906779D01*
X1835551Y904240D01*
X1848247Y914397D02*
Y906779D01*
X1850786Y904240D01*
X1858404D01*
Y914397D01*
X1863482Y904240D02*
Y914397D01*
X1871100D01*
X1873639Y911858D01*
Y904240D01*
X1888874Y919475D02*
Y904240D01*
X1881257D01*
X1878717Y906779D01*
Y911858D01*
X1881257Y914397D01*
X1888874D01*
X1236784Y876299D02*
X1239324Y873760D01*
X1244402D01*
X1246941Y876299D01*
Y886456D01*
X1244402Y888995D01*
X1239324D01*
X1236784Y886456D01*
Y883917D01*
X1239324Y881377D01*
X1246941D01*
X1413521Y873760D02*
X1418599D01*
X1416060D01*
Y888995D01*
X1413521Y886456D01*
X1426217Y873760D02*
Y876299D01*
X1428756D01*
Y873760D01*
X1426217D01*
X1438913Y886456D02*
X1441452Y888995D01*
X1446530D01*
X1449070Y886456D01*
Y876299D01*
X1446530Y873760D01*
X1441452D01*
X1438913Y876299D01*
Y886456D01*
X1454148Y876299D02*
X1456687Y873760D01*
X1461765D01*
X1464305Y876299D01*
Y886456D01*
X1461765Y888995D01*
X1456687D01*
X1454148Y886456D01*
Y883917D01*
X1456687Y881377D01*
X1464305D01*
X1469383Y873760D02*
Y883917D01*
X1471922D01*
X1474461Y881377D01*
Y873760D01*
Y881377D01*
X1477000Y883917D01*
X1479540Y881377D01*
Y873760D01*
X1484618D02*
Y883917D01*
X1487157D01*
X1489696Y881377D01*
Y873760D01*
Y881377D01*
X1492236Y883917D01*
X1494775Y881377D01*
Y873760D01*
X1520167D02*
X1515088Y878838D01*
Y883917D01*
X1520167Y888995D01*
X1535402Y873760D02*
Y888995D01*
X1527784Y881377D01*
X1537941D01*
X1553176Y873760D02*
X1543019D01*
X1553176Y883917D01*
Y886456D01*
X1550637Y888995D01*
X1545558D01*
X1543019Y886456D01*
X1558254Y873760D02*
Y876299D01*
X1560793D01*
Y873760D01*
X1558254D01*
X1570950Y876299D02*
X1573489Y873760D01*
X1578568D01*
X1581107Y876299D01*
Y886456D01*
X1578568Y888995D01*
X1573489D01*
X1570950Y886456D01*
Y883917D01*
X1573489Y881377D01*
X1581107D01*
X1586185Y873760D02*
X1591263D01*
X1588724D01*
Y888995D01*
X1586185Y886456D01*
X1598881D02*
X1601420Y888995D01*
X1606499D01*
X1609038Y886456D01*
Y883917D01*
X1606499Y881377D01*
X1603959D01*
X1606499D01*
X1609038Y878838D01*
Y876299D01*
X1606499Y873760D01*
X1601420D01*
X1598881Y876299D01*
X1614116Y873760D02*
Y883917D01*
X1616655D01*
X1619194Y881377D01*
Y873760D01*
Y881377D01*
X1621734Y883917D01*
X1624273Y881377D01*
Y873760D01*
X1629351D02*
X1634430D01*
X1631890D01*
Y883917D01*
X1629351D01*
X1642047Y873760D02*
X1647126D01*
X1644586D01*
Y888995D01*
X1642047D01*
X1654743Y873760D02*
X1659821Y878838D01*
Y883917D01*
X1654743Y888995D01*
X1689792Y873760D02*
Y888995D01*
X1697410D01*
X1699949Y886456D01*
Y881377D01*
X1697410Y878838D01*
X1689792D01*
X1705028Y888995D02*
X1715184D01*
X1710106D01*
Y873760D01*
X1720263Y888995D02*
Y873760D01*
Y881377D01*
X1730419D01*
Y888995D01*
Y873760D01*
X1817777D02*
Y888995D01*
X1825394D01*
X1827934Y886456D01*
Y881377D01*
X1825394Y878838D01*
X1817777D01*
X1822855D02*
X1827934Y873760D01*
X1835551D02*
X1840630D01*
X1843169Y876299D01*
Y881377D01*
X1840630Y883917D01*
X1835551D01*
X1833012Y881377D01*
Y876299D01*
X1835551Y873760D01*
X1848247Y883917D02*
Y876299D01*
X1850786Y873760D01*
X1858404D01*
Y883917D01*
X1863482Y873760D02*
Y883917D01*
X1871100D01*
X1873639Y881377D01*
Y873760D01*
X1888874Y888995D02*
Y873760D01*
X1881257D01*
X1878717Y876299D01*
Y881377D01*
X1881257Y883917D01*
X1888874D01*
X1246941Y843280D02*
X1236784D01*
X1246941Y853437D01*
Y855976D01*
X1244402Y858515D01*
X1239324D01*
X1236784Y855976D01*
X1413521D02*
X1416060Y858515D01*
X1421139D01*
X1423678Y855976D01*
Y853437D01*
X1421139Y850898D01*
X1418599D01*
X1421139D01*
X1423678Y848358D01*
Y845819D01*
X1421139Y843280D01*
X1416060D01*
X1413521Y845819D01*
X1428756Y843280D02*
Y845819D01*
X1431295D01*
Y843280D01*
X1428756D01*
X1451609D02*
X1441452D01*
X1451609Y853437D01*
Y855976D01*
X1449070Y858515D01*
X1443991D01*
X1441452Y855976D01*
X1466844Y858515D02*
X1461765Y855976D01*
X1456687Y850898D01*
Y845819D01*
X1459226Y843280D01*
X1464305D01*
X1466844Y845819D01*
Y848358D01*
X1464305Y850898D01*
X1456687D01*
X1471922Y843280D02*
Y853437D01*
X1474461D01*
X1477000Y850898D01*
Y843280D01*
Y850898D01*
X1479540Y853437D01*
X1482079Y850898D01*
Y843280D01*
X1487157D02*
Y853437D01*
X1489696D01*
X1492236Y850898D01*
Y843280D01*
Y850898D01*
X1494775Y853437D01*
X1497314Y850898D01*
Y843280D01*
X1522706D02*
X1517627Y848358D01*
Y853437D01*
X1522706Y858515D01*
X1530323Y843280D02*
X1535402D01*
X1532863D01*
Y858515D01*
X1530323Y855976D01*
X1553176Y843280D02*
X1543019D01*
X1553176Y853437D01*
Y855976D01*
X1550637Y858515D01*
X1545558D01*
X1543019Y855976D01*
X1558254D02*
X1560793Y858515D01*
X1565872D01*
X1568411Y855976D01*
Y853437D01*
X1565872Y850898D01*
X1568411Y848358D01*
Y845819D01*
X1565872Y843280D01*
X1560793D01*
X1558254Y845819D01*
Y848358D01*
X1560793Y850898D01*
X1558254Y853437D01*
Y855976D01*
X1560793Y850898D02*
X1565872D01*
X1573489Y843280D02*
Y845819D01*
X1576028D01*
Y843280D01*
X1573489D01*
X1586185Y855976D02*
X1588724Y858515D01*
X1593803D01*
X1596342Y855976D01*
Y853437D01*
X1593803Y850898D01*
X1591263D01*
X1593803D01*
X1596342Y848358D01*
Y845819D01*
X1593803Y843280D01*
X1588724D01*
X1586185Y845819D01*
X1609038Y843280D02*
Y858515D01*
X1601420Y850898D01*
X1611577D01*
X1626812Y858515D02*
X1621734Y855976D01*
X1616655Y850898D01*
Y845819D01*
X1619194Y843280D01*
X1624273D01*
X1626812Y845819D01*
Y848358D01*
X1624273Y850898D01*
X1616655D01*
X1631890Y843280D02*
Y853437D01*
X1634430D01*
X1636969Y850898D01*
Y843280D01*
Y850898D01*
X1639508Y853437D01*
X1642047Y850898D01*
Y843280D01*
X1647126D02*
X1652204D01*
X1649665D01*
Y853437D01*
X1647126D01*
X1659821Y843280D02*
X1664900D01*
X1662361D01*
Y858515D01*
X1659821D01*
X1672517Y843280D02*
X1677596Y848358D01*
Y853437D01*
X1672517Y858515D01*
X1689792Y843280D02*
Y858515D01*
X1697410D01*
X1699949Y855976D01*
Y850898D01*
X1697410Y848358D01*
X1689792D01*
X1705028Y858515D02*
X1715184D01*
X1710106D01*
Y843280D01*
X1720263Y858515D02*
Y843280D01*
Y850898D01*
X1730419D01*
Y858515D01*
Y843280D01*
X1817777D02*
Y858515D01*
X1825394D01*
X1827934Y855976D01*
Y850898D01*
X1825394Y848358D01*
X1817777D01*
X1822855D02*
X1827934Y843280D01*
X1835551D02*
X1840630D01*
X1843169Y845819D01*
Y850898D01*
X1840630Y853437D01*
X1835551D01*
X1833012Y850898D01*
Y845819D01*
X1835551Y843280D01*
X1848247Y853437D02*
Y845819D01*
X1850786Y843280D01*
X1858404D01*
Y853437D01*
X1863482Y843280D02*
Y853437D01*
X1871100D01*
X1873639Y850898D01*
Y843280D01*
X1888874Y858515D02*
Y843280D01*
X1881257D01*
X1878717Y845819D01*
Y850898D01*
X1881257Y853437D01*
X1888874D01*
X1236784Y825496D02*
X1239324Y828035D01*
X1244402D01*
X1246941Y825496D01*
Y822957D01*
X1244402Y820417D01*
X1241863D01*
X1244402D01*
X1246941Y817878D01*
Y815339D01*
X1244402Y812800D01*
X1239324D01*
X1236784Y815339D01*
X1252020Y825496D02*
X1254559Y828035D01*
X1259637D01*
X1262176Y825496D01*
Y822957D01*
X1259637Y820417D01*
X1262176Y817878D01*
Y815339D01*
X1259637Y812800D01*
X1254559D01*
X1252020Y815339D01*
Y817878D01*
X1254559Y820417D01*
X1252020Y822957D01*
Y825496D01*
X1254559Y820417D02*
X1259637D01*
X1289608Y828035D02*
X1299765D01*
X1294687D01*
Y812800D01*
X1307383D02*
X1312461D01*
X1315000Y815339D01*
Y820417D01*
X1312461Y822957D01*
X1307383D01*
X1304843Y820417D01*
Y815339D01*
X1307383Y812800D01*
X1322617Y825496D02*
Y822957D01*
X1320078D01*
X1325157D01*
X1322617D01*
Y815339D01*
X1325157Y812800D01*
X1335313Y822957D02*
X1340392D01*
X1342931Y820417D01*
Y812800D01*
X1335313D01*
X1332774Y815339D01*
X1335313Y817878D01*
X1342931D01*
X1348009Y812800D02*
X1353088D01*
X1350549D01*
Y828035D01*
X1348009D01*
D25*
X1120992Y850900D02*
G03*
X1120992Y850900I-6096J0D01*
G01*
D38*
X589530Y840250D02*
G03*
X589530Y840250I-5080J0D01*
G01*
Y1090150D02*
G03*
X589530Y1090150I-5080J0D01*
G01*
D39*
X1120988Y1047491D02*
X1117941Y1050538D01*
X1111847D01*
X1108800Y1047491D01*
Y1044444D01*
X1111847Y1041397D01*
X1117941D01*
X1120988Y1038350D01*
Y1035303D01*
X1117941Y1032256D01*
X1111847D01*
X1108800Y1035303D01*
X1127082Y1044444D02*
Y1035303D01*
X1130129Y1032256D01*
X1139270D01*
Y1029209D01*
X1136223Y1026162D01*
X1133176D01*
X1139270Y1032256D02*
Y1044444D01*
X1145364Y1032256D02*
Y1044444D01*
X1148411D01*
X1151458Y1041397D01*
Y1032256D01*
Y1041397D01*
X1154505Y1044444D01*
X1157552Y1041397D01*
Y1032256D01*
X1163646Y1050538D02*
Y1032256D01*
X1172787D01*
X1175834Y1035303D01*
Y1038350D01*
Y1041397D01*
X1172787Y1044444D01*
X1163646D01*
X1184975Y1032256D02*
X1191069D01*
X1194116Y1035303D01*
Y1041397D01*
X1191069Y1044444D01*
X1184975D01*
X1181928Y1041397D01*
Y1035303D01*
X1184975Y1032256D01*
X1200210D02*
X1206304D01*
X1203257D01*
Y1050538D01*
X1200210D01*
X1236784D02*
Y1032256D01*
Y1041397D01*
X1248972D01*
Y1050538D01*
Y1032256D01*
X1255067D02*
X1261161D01*
X1258113D01*
Y1044444D01*
X1255067D01*
X1273349Y1047491D02*
Y1044444D01*
X1270302D01*
X1276396D01*
X1273349D01*
Y1035303D01*
X1276396Y1032256D01*
X1316007Y1047491D02*
X1312960Y1050538D01*
X1306866D01*
X1303819Y1047491D01*
Y1035303D01*
X1306866Y1032256D01*
X1312960D01*
X1316007Y1035303D01*
X1325148Y1032256D02*
X1331242D01*
X1334289Y1035303D01*
Y1041397D01*
X1331242Y1044444D01*
X1325148D01*
X1322101Y1041397D01*
Y1035303D01*
X1325148Y1032256D01*
X1340383Y1044444D02*
Y1035303D01*
X1343430Y1032256D01*
X1352571D01*
Y1044444D01*
X1358665Y1032256D02*
Y1044444D01*
X1367806D01*
X1370853Y1041397D01*
Y1032256D01*
X1379994Y1047491D02*
Y1044444D01*
X1376947D01*
X1383041D01*
X1379994D01*
Y1035303D01*
X1383041Y1032256D01*
X1413521Y1050538D02*
X1425709D01*
X1419615D01*
Y1032256D01*
X1434850D02*
X1440944D01*
X1443991Y1035303D01*
Y1041397D01*
X1440944Y1044444D01*
X1434850D01*
X1431803Y1041397D01*
Y1035303D01*
X1434850Y1032256D01*
X1453132D02*
X1459226D01*
X1462273Y1035303D01*
Y1041397D01*
X1459226Y1044444D01*
X1453132D01*
X1450085Y1041397D01*
Y1035303D01*
X1453132Y1032256D01*
X1468367D02*
X1474461D01*
X1471414D01*
Y1050538D01*
X1468367D01*
X1514073Y1047491D02*
X1511026Y1050538D01*
X1504931D01*
X1501884Y1047491D01*
Y1044444D01*
X1504931Y1041397D01*
X1511026D01*
X1514073Y1038350D01*
Y1035303D01*
X1511026Y1032256D01*
X1504931D01*
X1501884Y1035303D01*
X1520167Y1032256D02*
X1526261D01*
X1523214D01*
Y1044444D01*
X1520167D01*
X1535402D02*
X1547590D01*
X1535402Y1032256D01*
X1547590D01*
X1562825D02*
X1556731D01*
X1553684Y1035303D01*
Y1041397D01*
X1556731Y1044444D01*
X1562825D01*
X1565872Y1041397D01*
Y1038350D01*
X1553684D01*
X1689792Y1032256D02*
Y1050538D01*
X1698934D01*
X1701981Y1047491D01*
Y1041397D01*
X1698934Y1038350D01*
X1689792D01*
X1708075Y1032256D02*
X1714169D01*
X1711122D01*
Y1050538D01*
X1708075D01*
X1726357Y1044444D02*
X1732451D01*
X1735498Y1041397D01*
Y1032256D01*
X1726357D01*
X1723310Y1035303D01*
X1726357Y1038350D01*
X1735498D01*
X1744639Y1047491D02*
Y1044444D01*
X1741592D01*
X1747686D01*
X1744639D01*
Y1035303D01*
X1747686Y1032256D01*
X1765968D02*
X1759874D01*
X1756827Y1035303D01*
Y1041397D01*
X1759874Y1044444D01*
X1765968D01*
X1769015Y1041397D01*
Y1038350D01*
X1756827D01*
X1787297Y1050538D02*
Y1032256D01*
X1778156D01*
X1775109Y1035303D01*
Y1041397D01*
X1778156Y1044444D01*
X1787297D01*
X1817777Y1050538D02*
Y1032256D01*
Y1041397D01*
X1829965D01*
Y1050538D01*
Y1032256D01*
X1839106D02*
X1845200D01*
X1848247Y1035303D01*
Y1041397D01*
X1845200Y1044444D01*
X1839106D01*
X1836059Y1041397D01*
Y1035303D01*
X1839106Y1032256D01*
X1854341D02*
X1860435D01*
X1857388D01*
Y1050538D01*
X1854341D01*
X1878717Y1032256D02*
X1872623D01*
X1869576Y1035303D01*
Y1041397D01*
X1872623Y1044444D01*
X1878717D01*
X1881764Y1041397D01*
Y1038350D01*
X1869576D01*
X1906140Y1050538D02*
X1918328D01*
X1912234D01*
Y1032256D01*
X1924422Y1044444D02*
Y1035303D01*
X1927469Y1032256D01*
X1936611D01*
Y1029209D01*
X1933564Y1026162D01*
X1930517D01*
X1936611Y1032256D02*
Y1044444D01*
X1942704Y1026162D02*
Y1044444D01*
X1951846D01*
X1954893Y1041397D01*
Y1035303D01*
X1951846Y1032256D01*
X1942704D01*
X1970128D02*
X1964034D01*
X1960987Y1035303D01*
Y1041397D01*
X1964034Y1044444D01*
X1970128D01*
X1973175Y1041397D01*
Y1038350D01*
X1960987D01*
X1086448Y1059688D02*
X2003655D01*
X1086448Y1018540D02*
X2003655D01*
X1086448Y1059688D02*
Y805180D01*
X2003655Y1059688D02*
Y805180D01*
X1225608Y1059688D02*
Y805180D01*
X1402345Y1059688D02*
Y805180D01*
X1678616Y1059688D02*
Y805180D01*
X1806601Y1059688D02*
Y805180D01*
X1086448Y835660D02*
X2003655D01*
X1086448Y805180D02*
X2003655D01*
M02*
