%FSLAX44Y44*%
%MOMM*%
G71*
G01*
G75*
%ADD10R,0.8000X0.4000*%
%ADD11O,0.8000X0.4000*%
%ADD12C,0.2000*%
%ADD13C,1.5000*%
%ADD14R,1.5000X1.5000*%
%ADD15R,1.5000X1.5000*%
%ADD16C,4.7600*%
%ADD17R,1.6900X1.6900*%
%ADD18C,1.6900*%
%ADD19C,1.0000*%
%ADD20C,1.3000*%
%ADD21C,1.2700*%
D10*
X812800Y1061720D02*
D03*
D11*
Y1049020D02*
D03*
Y1036320D02*
D03*
Y1023620D02*
D03*
Y1010920D02*
D03*
Y998220D02*
D03*
Y985520D02*
D03*
Y972820D02*
D03*
Y960120D02*
D03*
Y947420D02*
D03*
Y934720D02*
D03*
Y922020D02*
D03*
Y909320D02*
D03*
Y896620D02*
D03*
Y883920D02*
D03*
Y871220D02*
D03*
X887800Y1061720D02*
D03*
Y1049020D02*
D03*
Y1036320D02*
D03*
Y1023620D02*
D03*
Y1010920D02*
D03*
Y998220D02*
D03*
Y985520D02*
D03*
Y972820D02*
D03*
Y960120D02*
D03*
Y947420D02*
D03*
Y934720D02*
D03*
Y922020D02*
D03*
Y909320D02*
D03*
Y896620D02*
D03*
Y883920D02*
D03*
Y871220D02*
D03*
D13*
X787400Y1117600D02*
D03*
X812800D02*
D03*
X1021080Y1051560D02*
D03*
Y924560D02*
D03*
X701040Y985520D02*
D03*
X726440D02*
D03*
X701040Y960120D02*
D03*
X726440D02*
D03*
X701040Y934720D02*
D03*
D14*
X838200Y1117600D02*
D03*
D15*
X1021080Y1026160D02*
D03*
Y899160D02*
D03*
X726440Y934720D02*
D03*
D16*
X584450Y840250D02*
D03*
Y1090150D02*
D03*
D17*
X570250Y1020600D02*
D03*
D18*
X598650Y1006750D02*
D03*
X570250Y992900D02*
D03*
X598650Y979050D02*
D03*
X570250Y965200D02*
D03*
X598650Y951350D02*
D03*
X570250Y937500D02*
D03*
X598650Y923650D02*
D03*
X570250Y909800D02*
D03*
D19*
X734060Y883920D02*
D03*
X708660D02*
D03*
X734060Y848360D02*
D03*
X708660D02*
D03*
X962660Y960120D02*
D03*
X937260D02*
D03*
X962660Y1010920D02*
D03*
X937260D02*
D03*
D20*
X777240Y893080D02*
D03*
Y844280D02*
D03*
M02*
