%FSLAX44Y44*%
%MOMM*%
G71*
G01*
G75*
%ADD10R,0.8000X0.4000*%
%ADD11O,0.8000X0.4000*%
%ADD12C,0.2000*%
%ADD13C,1.5000*%
%ADD14R,1.5000X1.5000*%
%ADD15R,1.5000X1.5000*%
%ADD16C,4.7600*%
%ADD17R,1.6900X1.6900*%
%ADD18C,1.6900*%
%ADD19C,1.0000*%
%ADD20C,1.3000*%
%ADD21C,1.2700*%
%ADD22C,0.1000*%
%ADD23C,0.2540*%
%ADD24C,0.1500*%
%ADD25C,0.2032*%
%ADD26R,1.0032X0.6032*%
%ADD27O,1.0032X0.6032*%
%ADD28C,1.7032*%
%ADD29R,1.7032X1.7032*%
%ADD30R,1.7032X1.7032*%
%ADD31C,4.9632*%
%ADD32R,1.8932X1.8932*%
%ADD33C,1.8932*%
%ADD34C,1.2032*%
%ADD35C,1.5032*%
%ADD36C,1.4732*%
%ADD37C,0.3000*%
%ADD38C,0.1693*%
%ADD39C,0.4064*%
D22*
X782900Y1117600D02*
X791900D01*
X787400Y1113100D02*
Y1122100D01*
X808300Y1117600D02*
X817300D01*
X812800Y1113100D02*
Y1122100D01*
X833700Y1117600D02*
X842700D01*
X838200Y1113100D02*
Y1122100D01*
X1016580Y1051560D02*
X1025580D01*
X1021080Y1047060D02*
Y1056060D01*
X1016580Y1026160D02*
X1025580D01*
X1021080Y1021660D02*
Y1030660D01*
X1016580Y924560D02*
X1025580D01*
X1021080Y920060D02*
Y929060D01*
X1016580Y899160D02*
X1025580D01*
X1021080Y894660D02*
Y903660D01*
X568150Y840250D02*
X600750D01*
X584450Y823950D02*
Y856550D01*
X568150Y1090150D02*
X600750D01*
X584450Y1073850D02*
Y1106450D01*
X564800Y1020600D02*
X575700D01*
X570250Y1015150D02*
Y1026050D01*
X593200Y1006750D02*
X604100D01*
X598650Y1001300D02*
Y1012200D01*
X564800Y992900D02*
X575700D01*
X570250Y987450D02*
Y998350D01*
X593200Y979050D02*
X604100D01*
X598650Y973600D02*
Y984500D01*
X564800Y965200D02*
X575700D01*
X570250Y959750D02*
Y970650D01*
X593200Y951350D02*
X604100D01*
X598650Y945900D02*
Y956800D01*
X564800Y937500D02*
X575700D01*
X570250Y932050D02*
Y942950D01*
X593200Y923650D02*
X604100D01*
X598650Y918200D02*
Y929100D01*
X564800Y909800D02*
X575700D01*
X570250Y904350D02*
Y915250D01*
X696540Y985520D02*
X705540D01*
X701040Y981020D02*
Y990020D01*
X721940Y985520D02*
X730940D01*
X726440Y981020D02*
Y990020D01*
X696540Y960120D02*
X705540D01*
X701040Y955620D02*
Y964620D01*
X721940Y960120D02*
X730940D01*
X726440Y955620D02*
Y964620D01*
X696540Y934720D02*
X705540D01*
X701040Y930220D02*
Y939220D01*
X721940Y934720D02*
X730940D01*
X726440Y930220D02*
Y939220D01*
X731310Y883920D02*
X736810D01*
X734060Y881170D02*
Y886670D01*
X705910Y883920D02*
X711410D01*
X708660Y881170D02*
Y886670D01*
X731310Y848360D02*
X736810D01*
X734060Y845610D02*
Y851110D01*
X705910Y848360D02*
X711410D01*
X708660Y845610D02*
Y851110D01*
X773740Y893080D02*
X780740D01*
X777240Y889580D02*
Y896580D01*
X773740Y844280D02*
X780740D01*
X777240Y840780D02*
Y847780D01*
X959910Y960120D02*
X965410D01*
X962660Y957370D02*
Y962870D01*
X934510Y960120D02*
X940010D01*
X937260Y957370D02*
Y962870D01*
X959910Y1010920D02*
X965410D01*
X962660Y1008170D02*
Y1013670D01*
X934510Y1010920D02*
X940010D01*
X937260Y1008170D02*
Y1013670D01*
X811784Y855980D02*
X818896D01*
X815340Y852424D02*
Y859536D01*
X900684Y960120D02*
X907796D01*
X904240Y956564D02*
Y963676D01*
X792734Y948690D02*
X799846D01*
X796290Y945134D02*
Y952246D01*
X741934Y960120D02*
X749046D01*
X745490Y956564D02*
Y963676D01*
M02*
