%FSLAX44Y44*%
%MOMM*%
G71*
G01*
G75*
G04 Layer_Color=16711935*
%ADD10R,0.8000X0.4000*%
%ADD11O,0.8000X0.4000*%
%ADD12C,0.2000*%
%ADD13C,1.5000*%
%ADD14R,1.5000X1.5000*%
%ADD15R,1.5000X1.5000*%
%ADD16C,4.7600*%
%ADD17R,1.6900X1.6900*%
%ADD18C,1.6900*%
%ADD19C,1.0000*%
%ADD20C,1.3000*%
%ADD21C,1.2700*%
%ADD22C,1.0160*%
%ADD23C,1.9160*%
%ADD24C,4.2760*%
%ADD25C,2.1060*%
%ADD26C,1.5660*%
%ADD27C,1.7160*%
%ADD28C,1.7272*%
%ADD29C,0.1000*%
%ADD30C,0.2540*%
%ADD31C,0.1500*%
%ADD32C,0.2032*%
%ADD33R,1.0032X0.6032*%
%ADD34O,1.0032X0.6032*%
%ADD35C,1.7032*%
%ADD36R,1.7032X1.7032*%
%ADD37R,1.7032X1.7032*%
%ADD38C,4.9632*%
%ADD39R,1.8932X1.8932*%
%ADD40C,1.8932*%
%ADD41C,1.2032*%
%ADD42C,1.5032*%
%ADD43C,1.4732*%
%ADD44C,0.1524*%
D30*
X1045000Y690880D02*
Y770960D01*
X521000Y690880D02*
Y770960D01*
X851558Y693420D02*
X1045000D01*
X521000D02*
X706314D01*
X1029760Y698500D02*
X1045000Y693420D01*
X1029760Y688340D02*
X1045000Y693420D01*
X521000D02*
X536240Y688340D01*
X521000Y693420D02*
X536240Y698500D01*
X403860Y1149000D02*
X516960D01*
X403860Y775000D02*
X516960D01*
X406400Y1030558D02*
Y1149000D01*
Y775000D02*
Y885314D01*
X401320Y1133760D02*
X406400Y1149000D01*
X411480Y1133760D01*
X406400Y775000D02*
X411480Y790240D01*
X401320D02*
X406400Y775000D01*
D44*
X720535Y699513D02*
X710378D01*
Y691896D01*
X715456Y694435D01*
X717996D01*
X720535Y691896D01*
Y686818D01*
X717996Y684278D01*
X712917D01*
X710378Y686818D01*
X735770Y684278D02*
X725613D01*
X735770Y694435D01*
Y696974D01*
X733231Y699513D01*
X728152D01*
X725613Y696974D01*
X740848Y684278D02*
Y686818D01*
X743388D01*
Y684278D01*
X740848D01*
X761162D02*
Y699513D01*
X753544Y691896D01*
X763701D01*
X768779Y696974D02*
X771319Y699513D01*
X776397D01*
X778936Y696974D01*
Y686818D01*
X776397Y684278D01*
X771319D01*
X768779Y686818D01*
Y696974D01*
X804328Y684278D02*
X799249Y689357D01*
Y694435D01*
X804328Y699513D01*
X811945Y684278D02*
Y694435D01*
X814484D01*
X817024Y691896D01*
Y684278D01*
Y691896D01*
X819563Y694435D01*
X822102Y691896D01*
Y684278D01*
X827180D02*
Y694435D01*
X829720D01*
X832259Y691896D01*
Y684278D01*
Y691896D01*
X834798Y694435D01*
X837337Y691896D01*
Y684278D01*
X842415D02*
X847494Y689357D01*
Y694435D01*
X842415Y699513D01*
X402846Y889378D02*
X400307Y891917D01*
Y896996D01*
X402846Y899535D01*
X405385D01*
X407924Y896996D01*
Y894456D01*
Y896996D01*
X410463Y899535D01*
X413002D01*
X415541Y896996D01*
Y891917D01*
X413002Y889378D01*
X400307Y904613D02*
Y914770D01*
X402846D01*
X413002Y904613D01*
X415541D01*
Y919848D02*
X413002D01*
Y922387D01*
X415541D01*
Y919848D01*
Y940162D02*
X400307D01*
X407924Y932544D01*
Y942701D01*
X402846Y947779D02*
X400307Y950319D01*
Y955397D01*
X402846Y957936D01*
X413002D01*
X415541Y955397D01*
Y950319D01*
X413002Y947779D01*
X402846D01*
X415541Y983328D02*
X410463Y978249D01*
X405385D01*
X400307Y983328D01*
X415541Y990945D02*
X405385D01*
Y993484D01*
X407924Y996024D01*
X415541D01*
X407924D01*
X405385Y998563D01*
X407924Y1001102D01*
X415541D01*
Y1006180D02*
X405385D01*
Y1008720D01*
X407924Y1011259D01*
X415541D01*
X407924D01*
X405385Y1013798D01*
X407924Y1016337D01*
X415541D01*
Y1021415D02*
X410463Y1026494D01*
X405385D01*
X400307Y1021415D01*
M02*
